<?xml version="1.0" standalone="no"?>
<!DOCTYPE svg PUBLIC "-//W3C//DTD SVG 20010904//EN"
 "http://www.w3.org/TR/2001/REC-SVG-20010904/DTD/svg10.dtd">
<svg version="1.0" xmlns="http://www.w3.org/2000/svg"
 width="900.000000pt" height="843.000000pt" viewBox="0 0 900.000000 843.000000"
 preserveAspectRatio="xMidYMid meet">
<metadata>
Created by potrace 1.10, written by Peter Selinger 2001-2011
</metadata>
<g transform="translate(0.000000,843.000000) scale(0.100000,-0.100000)"
fill="#000000" stroke="none">
<path d="M4308 8395 c-2 -2 -80 -5 -173 -6 -94 -1 -204 -8 -245 -15 -41 -8
-89 -14 -107 -14 -39 0 -277 -61 -353 -90 -30 -12 -64 -24 -75 -27 -23 -6
-144 -65 -195 -95 -19 -12 -55 -31 -80 -44 -25 -12 -56 -34 -69 -48 -14 -14
-30 -26 -36 -26 -31 0 -392 -347 -453 -435 -15 -22 -33 -46 -40 -54 -19 -20
-182 -270 -182 -279 0 -5 -18 -44 -41 -88 -57 -112 -145 -358 -165 -464 -26
-136 -64 -378 -64 -411 0 -14 6 -31 13 -37 9 -8 215 -13 658 -16 354 -2 653
-5 664 -7 11 -1 47 -1 80 -1 109 2 137 1 945 -4 707 -4 1379 -13 1500 -18 47
-3 234 -9 415 -16 182 -6 366 -13 411 -16 61 -4 91 -2 118 10 l38 16 -8 92
c-3 51 -10 101 -15 110 -5 9 -13 45 -19 80 -31 198 -40 239 -62 298 -14 36
-40 112 -58 170 -19 58 -46 126 -62 151 -15 25 -28 50 -28 56 0 23 -93 186
-169 296 -14 21 -30 46 -36 55 -72 120 -256 312 -405 422 -52 39 -108 80 -124
92 -29 23 -59 41 -86 54 -8 4 -33 19 -55 33 -78 50 -128 76 -205 105 -25 10
-72 30 -105 46 -33 15 -80 33 -105 39 -25 6 -76 20 -115 30 -38 10 -101 22
-140 26 -38 3 -92 10 -120 15 -48 9 -640 22 -647 15z m-595 -456 c17 -24 18
-30 6 -64 -11 -30 -33 -52 -98 -99 -46 -34 -106 -79 -134 -101 -27 -22 -62
-48 -79 -57 -16 -9 -86 -70 -154 -136 -68 -66 -140 -127 -160 -137 -50 -24
-121 -16 -145 16 -26 34 -24 59 17 144 63 133 238 284 444 383 47 22 99 44
115 48 17 4 39 13 50 21 12 8 39 13 69 11 39 -2 53 -8 69 -29z"/>
<path d="M1503 6031 c-34 -10 -70 -24 -78 -31 -51 -42 -85 -213 -63 -311 15
-70 82 -158 140 -189 38 -19 62 -22 223 -26 443 -11 1748 -21 3465 -28 575 -2
1281 -6 1570 -9 332 -3 548 -1 588 5 58 9 69 15 115 62 55 55 95 124 104 180
3 18 0 65 -7 103 -10 60 -17 77 -55 120 -66 75 -98 81 -490 88 -176 4 -369 8
-430 10 -108 3 -597 7 -2685 20 -569 3 -1174 8 -1345 11 -170 3 -362 4 -425 2
-140 -4 -376 -1 -485 6 -59 4 -96 0 -142 -13z"/>
<path d="M3375 4712 c-75 -15 -134 -33 -245 -76 -8 -4 -35 -17 -59 -31 -24
-14 -48 -25 -52 -25 -5 0 -56 -33 -115 -72 -112 -75 -308 -263 -396 -379 -24
-31 -86 -112 -139 -180 -52 -68 -127 -169 -166 -224 -39 -55 -87 -116 -107
-134 -20 -19 -36 -40 -36 -47 0 -6 -17 -27 -37 -46 -21 -18 -46 -46 -56 -61
-9 -14 -59 -58 -110 -96 -50 -38 -101 -78 -111 -90 -11 -12 -23 -21 -27 -21
-5 0 -48 -19 -96 -42 -242 -114 -389 -143 -590 -115 -109 16 -208 41 -227 58
-6 5 -17 9 -26 9 -10 0 -26 8 -38 18 -12 10 -41 31 -66 47 -51 32 -124 127
-154 200 -100 242 -11 497 192 551 65 17 109 17 166 0 74 -23 106 -44 162
-105 53 -58 81 -113 92 -183 9 -51 38 -59 77 -22 16 16 32 40 36 54 3 14 10
31 16 38 6 8 16 48 23 90 14 84 3 200 -23 237 -7 11 -13 26 -13 33 0 37 -130
157 -205 191 -52 23 -196 51 -265 51 -75 0 -146 -18 -238 -61 -34 -16 -65 -29
-68 -29 -17 0 -127 -82 -180 -135 -84 -84 -116 -127 -170 -235 -10 -19 -23
-42 -29 -50 -7 -8 -19 -42 -27 -75 -9 -33 -21 -80 -28 -105 -31 -116 -34 -444
-6 -581 9 -41 16 -85 16 -99 0 -14 7 -34 15 -44 8 -11 15 -28 15 -38 0 -10 20
-62 45 -116 59 -125 72 -149 107 -193 15 -20 28 -41 28 -46 0 -8 12 -24 124
-162 91 -112 250 -242 411 -338 92 -54 127 -71 225 -109 145 -55 388 -101 586
-111 137 -6 184 -1 184 20 0 15 -66 47 -95 47 -34 0 -222 77 -295 121 -19 12
-57 33 -85 47 -27 14 -64 36 -82 49 -17 12 -35 23 -40 24 -4 0 -35 19 -68 43
-50 35 -60 46 -60 71 0 24 5 31 23 33 13 2 29 -2 37 -8 7 -6 55 -32 107 -59
51 -26 107 -54 123 -63 42 -22 92 -39 147 -48 26 -5 55 -13 65 -18 21 -10 162
-37 276 -52 99 -13 368 -13 517 0 118 10 236 30 326 56 28 8 63 14 78 14 15 0
36 5 47 11 11 6 56 21 99 34 109 33 274 108 397 182 39 24 74 43 78 43 3 0 23
13 43 30 36 29 132 102 195 148 63 46 192 156 247 212 18 18 84 98 120 146
140 186 156 210 215 324 10 19 22 42 27 50 4 8 11 22 15 30 3 8 16 29 28 45
23 32 89 167 98 200 18 66 58 161 76 179 31 31 51 12 82 -75 14 -41 37 -100
52 -133 15 -32 27 -63 27 -68 0 -5 23 -46 50 -91 55 -89 59 -95 85 -147 27
-54 182 -285 205 -305 11 -10 20 -24 20 -31 0 -17 244 -249 305 -289 28 -19
75 -56 105 -84 30 -28 59 -51 64 -51 4 0 25 -13 45 -28 20 -16 44 -32 53 -35
10 -4 42 -21 70 -40 29 -18 80 -46 113 -61 33 -16 80 -38 105 -50 25 -13 58
-26 75 -30 16 -4 52 -18 80 -30 76 -34 116 -47 167 -56 26 -5 56 -13 67 -19
11 -6 32 -11 46 -11 15 0 53 -7 84 -15 43 -11 302 -34 401 -36 41 -1 272 23
320 32 30 6 80 15 110 19 50 7 138 36 228 76 18 7 39 14 47 14 8 0 31 7 52 17
66 28 214 105 255 131 81 52 198 122 205 122 5 0 24 14 43 32 47 43 150 118
162 118 5 0 30 16 56 35 54 42 95 44 100 7 4 -26 -38 -75 -228 -271 -89 -92
-206 -191 -224 -191 -3 0 -36 -21 -73 -47 -38 -26 -99 -63 -138 -83 -38 -20
-104 -55 -145 -77 -41 -23 -113 -54 -160 -69 -106 -33 -140 -50 -140 -69 0
-43 493 3 630 58 14 5 39 13 55 17 113 30 352 160 450 246 17 14 46 34 65 44
34 18 225 220 292 310 65 86 128 186 128 202 0 9 4 19 9 22 10 6 39 68 60 126
7 19 21 82 32 140 26 141 29 518 5 595 -9 28 -16 60 -16 73 0 13 -12 44 -28
70 -15 25 -36 68 -48 94 -24 58 -71 115 -183 224 -66 65 -103 91 -170 124
-175 84 -208 93 -345 94 -157 1 -287 -43 -363 -122 -115 -118 -123 -137 -125
-270 -2 -136 20 -216 73 -268 43 -42 66 -38 75 14 8 42 42 134 53 142 4 3 20
22 36 43 37 50 87 74 180 88 86 13 143 3 204 -35 64 -41 97 -85 145 -199 22
-52 21 -214 -2 -282 -23 -69 -95 -172 -151 -219 -61 -50 -165 -107 -216 -118
-120 -26 -242 -37 -335 -28 -54 4 -106 12 -116 18 -11 5 -36 12 -57 15 -41 6
-177 69 -261 120 -132 80 -257 186 -373 314 -118 130 -149 167 -237 282 -50
65 -127 166 -170 223 -44 56 -106 135 -139 173 -86 101 -261 270 -299 289 -18
9 -67 39 -108 66 -105 69 -154 89 -315 133 -160 44 -214 50 -375 44 -124 -5
-172 -11 -243 -31 -48 -15 -98 -26 -112 -26 -13 0 -26 -4 -29 -9 -3 -4 -34
-18 -68 -31 -35 -12 -82 -35 -106 -51 -24 -16 -45 -29 -48 -29 -3 0 -35 -22
-71 -50 -60 -45 -71 -50 -118 -50 -34 0 -61 6 -76 18 -13 9 -40 26 -59 36 -19
11 -60 38 -90 60 -31 23 -76 49 -100 59 -59 25 -97 41 -143 61 -21 9 -49 16
-62 16 -13 0 -39 6 -57 14 -98 42 -375 56 -523 28z m440 -259 c124 -30 170
-58 144 -89 -11 -14 -24 -15 -74 -9 -147 18 -327 5 -443 -32 -23 -7 -51 -13
-62 -13 -10 0 -22 -5 -25 -11 -4 -5 -17 -15 -28 -20 -90 -39 -189 -114 -307
-231 -87 -87 -200 -215 -209 -239 -8 -18 -57 -94 -92 -139 -14 -19 -41 -62
-59 -95 -18 -33 -45 -73 -60 -90 -15 -16 -39 -48 -52 -70 -14 -22 -44 -60 -68
-83 -23 -24 -48 -58 -55 -76 -8 -18 -29 -44 -47 -58 -18 -14 -55 -49 -83 -77
-27 -29 -61 -58 -75 -66 -14 -7 -37 -24 -52 -38 -60 -55 -256 -154 -373 -187
-44 -13 -92 -29 -107 -37 -15 -7 -46 -13 -70 -13 -24 0 -61 -5 -83 -10 -56
-13 -185 -1 -192 18 -14 36 24 55 132 68 174 20 197 25 291 65 54 23 118 55
142 71 24 15 46 28 49 28 5 0 30 19 122 95 148 121 327 301 356 357 14 26 29
49 34 53 9 5 88 128 140 219 13 22 41 66 62 96 21 30 50 75 63 100 45 85 139
205 213 275 88 82 109 96 291 188 41 22 165 56 202 57 14 0 43 7 65 15 53 20
167 11 310 -22z m1706 -39 c30 -9 68 -22 84 -29 17 -7 37 -16 45 -19 8 -3 22
-10 30 -14 45 -25 83 -42 96 -42 8 0 31 -15 51 -33 21 -18 64 -52 96 -76 67
-49 217 -199 217 -216 0 -6 27 -40 60 -76 32 -35 59 -69 60 -75 0 -7 33 -56
73 -110 40 -55 81 -112 91 -129 10 -16 29 -41 42 -55 13 -14 34 -46 48 -71 13
-26 31 -55 39 -65 9 -11 37 -46 63 -79 113 -142 294 -308 387 -356 7 -3 23
-11 36 -18 13 -7 60 -26 105 -43 126 -46 269 -70 513 -84 70 -4 117 -11 123
-19 24 -29 -24 -40 -219 -51 -101 -6 -184 4 -316 37 -22 6 -60 14 -85 19 -51
9 -111 30 -185 66 -29 13 -56 24 -61 24 -13 1 -119 67 -183 115 -74 55 -195
178 -261 266 -30 40 -74 95 -97 123 -23 28 -58 80 -78 115 -20 36 -56 87 -81
115 -24 28 -44 55 -44 61 0 10 -103 154 -135 188 -9 11 -27 34 -39 52 -38 56
-158 183 -204 216 -23 17 -56 43 -73 58 -80 73 -323 161 -446 161 -57 0 -77
16 -53 45 18 21 228 21 301 -1z m-1561 -213 c5 -11 10 -22 10 -26 0 -15 -74
-35 -129 -35 -33 0 -82 -7 -108 -16 -78 -25 -254 -116 -293 -152 -19 -17 -53
-44 -75 -58 -22 -15 -74 -67 -115 -116 -41 -50 -88 -105 -103 -122 -15 -17
-40 -49 -54 -71 -15 -22 -36 -50 -46 -62 -21 -24 -40 -54 -57 -91 -5 -13 -23
-43 -40 -66 -36 -53 -80 -135 -80 -150 0 -6 -12 -24 -28 -41 -15 -16 -39 -48
-53 -70 -42 -65 -199 -219 -270 -267 -73 -48 -139 -74 -163 -65 -27 11 -18 32
27 64 97 71 244 232 294 323 10 19 31 54 46 77 15 24 27 46 27 50 1 5 14 24
30 43 17 19 30 37 30 41 0 4 20 42 45 83 25 42 45 79 45 82 0 4 12 23 28 43
35 46 48 68 66 107 8 18 30 49 48 70 19 22 39 47 44 56 15 28 157 178 169 178
5 0 30 16 54 35 24 19 47 35 51 35 4 0 30 15 57 34 106 73 224 103 405 105
116 1 128 -1 138 -18z m1260 -5 c53 -12 98 -28 130 -47 8 -5 29 -15 45 -24 28
-14 57 -31 171 -100 27 -16 67 -45 89 -64 81 -71 228 -227 260 -276 18 -27 47
-63 63 -79 17 -16 34 -41 37 -57 4 -15 13 -33 22 -41 18 -14 80 -107 99 -148
9 -17 109 -148 153 -200 17 -19 31 -40 31 -46 0 -5 14 -23 30 -39 17 -16 30
-34 30 -41 0 -7 41 -51 92 -98 78 -73 89 -87 78 -101 -7 -8 -20 -15 -29 -15
-27 0 -164 80 -206 120 -22 21 -69 65 -105 96 -36 32 -73 72 -84 89 -10 16
-42 56 -72 87 -29 32 -55 67 -59 78 -4 11 -17 32 -30 46 -13 14 -34 44 -45 67
-12 23 -34 55 -48 70 -15 16 -45 57 -67 91 -89 141 -267 342 -370 419 -97 73
-221 147 -245 147 -7 0 -28 9 -46 21 -29 17 -32 24 -24 40 12 22 24 22 100 5z
m-35 -268 c100 -50 202 -132 251 -204 22 -32 59 -76 85 -103 9 -9 33 -45 54
-81 22 -36 49 -76 62 -91 13 -14 23 -30 23 -36 0 -19 34 -87 63 -124 15 -20
27 -39 27 -42 0 -3 20 -35 45 -71 25 -37 45 -71 45 -77 0 -6 19 -36 43 -67 54
-72 90 -139 82 -152 -3 -5 -14 -10 -25 -10 -23 0 -256 249 -275 294 -8 18 -22
39 -31 47 -16 13 -111 155 -128 189 -12 26 -30 54 -58 91 -16 20 -28 39 -28
43 0 5 -13 28 -30 53 -16 24 -30 46 -30 49 0 9 -35 52 -108 133 -64 70 -145
133 -205 159 -53 23 -43 68 13 55 14 -3 70 -28 125 -55z m-1254 32 c34 -19 21
-36 -58 -73 -43 -20 -101 -55 -130 -79 -28 -24 -70 -58 -92 -76 -23 -18 -58
-59 -79 -90 -56 -84 -84 -123 -114 -160 -16 -18 -28 -38 -28 -44 0 -6 -11 -26
-25 -44 -14 -18 -25 -37 -25 -42 0 -5 -8 -16 -19 -26 -10 -9 -28 -37 -41 -61
-13 -24 -31 -52 -41 -61 -11 -10 -19 -22 -19 -28 0 -11 -66 -112 -132 -201
-43 -58 -130 -135 -153 -135 -25 0 -29 29 -8 53 11 12 29 38 39 57 10 19 31
51 47 71 15 20 27 44 27 54 0 9 11 35 24 58 13 23 36 69 49 102 14 33 50 102
81 153 31 51 56 97 56 103 0 11 137 181 197 245 59 63 245 184 284 184 8 0 20
5 25 10 9 9 84 36 107 39 5 1 17 -4 28 -9z m949 -117 c55 -37 174 -162 220
-231 28 -40 50 -75 50 -77 0 -3 14 -24 30 -47 17 -22 30 -48 31 -57 0 -9 18
-47 40 -86 36 -64 66 -120 106 -200 9 -16 40 -55 70 -86 56 -57 66 -90 30 -97
-23 -5 -147 108 -172 156 -11 20 -31 55 -44 77 -14 22 -36 60 -50 85 -13 25
-35 59 -47 76 -13 17 -24 34 -24 38 0 3 -13 25 -30 48 -16 22 -30 47 -30 55 0
20 -36 87 -55 103 -9 8 -32 37 -50 65 -18 28 -55 74 -84 102 -48 47 -60 71
-44 86 11 11 27 8 53 -10z m-842 -85 c2 -8 -22 -42 -51 -75 -46 -52 -99 -133
-215 -333 -12 -19 -31 -55 -43 -80 -38 -78 -92 -163 -131 -209 -21 -24 -38
-50 -38 -57 0 -17 -88 -93 -117 -100 -14 -4 -29 -2 -35 4 -14 14 4 41 67 108
26 26 59 68 73 92 59 96 84 140 112 197 16 33 50 96 75 140 25 44 52 94 60
110 8 17 32 50 54 75 23 25 41 50 41 57 0 25 109 97 135 89 6 -1 11 -9 13 -18z"/>
</g>
</svg>
