<svg height="1649" viewBox="0 0 1649 1649" width="1649" xmlns="http://www.w3.org/2000/svg" xmlns:xlink="http://www.w3.org/1999/xlink"><clipPath id="a"><path d="m0 1649h1649v-1649h-1649z" transform="matrix(1 0 0 -1 0 1649)"/></clipPath><g clip-path="url(#a)"><path d="m0 0-278.041-.633c-.001.211-.002.422-.002.633 0 123.606 125.513 225.319 278.043 225.319s278.043-101.713 278.043-225.319z" fill="#343434" transform="matrix(1 0 0 -1 816.5957 684.8936)"/><path d="m0 0c0-15.511 11.088-28.085 24.766-28.085s24.766 12.574 24.766 28.085-11.088 28.085-24.766 28.085-24.766-12.574-24.766-28.085" fill="#1e1e1e" transform="matrix(1 0 0 -1 1101.9574 724.0411)"/><path d="m1126.723 896.883h-616.267v56.161h616.267z" fill="#323232" transform="matrix(1 0 0 -1 0 1649)"/><path d="m0 0c-10.909 4.632 8.676-13.24 9.563-13.95 14.899-11.933 36.261-20.077 55.023-22.977 2.267-.35 30.472-2.957 30.411-.564-.045 1.775-31.524 4.027-35.183 4.792-13.697 2.863-33.513 11.094-45.274 18.726-4.004 2.599-13.612 13.579-14.54 13.973m327.022 54.009c7.163 8.352 32.085 44.322 3.449 18.063-5.299-4.859-10.449-12.048-14.449-18.063-18.583-20.129-32.896-45.905-50.489-67.012 24.71 13.949 48.41 41.891 61.489 67.012m107 1c10.471-15.704 20.517-32.147 33.994-45.506 2.542-2.52 28.126-24.343 29.999-22.488 1.343 1.33-20.781 26.96-22.993 29.994-9.348 12.819-17.67 25.831-28 38-.3.353-.693.642-1 1-4.788 5.572-8.145 11.646-13.996 16.504-1.16.964-14.39 10.136-14.998 9.49-1.816-1.932 15.036-24.059 16.994-26.994m340-10c9.49 12.382 16.546 29.114 13.012 44.994-.855-17.82-8.97-34.605-20.012-47.994-1.607-1.948-10.875-9.766-10.989-10.517-1.095-7.196 16.458 11.52 17.989 13.517m-313 48c-.491-.554 1.176-2.195-1.479-1.986-2.096.166-31.109 19.09-37.515 18.974l24.994-23.988c1.054-1.494 2.611-2.432 3-3 4.576-6.682 9.143-16.182 14-22-.418-2.267 1.262-3.442 2-5 10.485-22.145 34.639-50.648 54.529-64.971 1.411-1.016 20.545-14.05 19.46-9.546-.306 1.272-15.654 15.067-18.497 18.509-11.081 13.414-22.544 30.529-30.492 46.008-2.246 4.374-3.389 11.716-8 14-.753 1.665-1.073 3.188-2 5-2.798 7.899-8.875 22.542-15 28 .453 3.381-20.844 20.091-20.994 16.506-.048-1.148 13.281-13.001 15.994-16.506m-134 7c3.598 3.305 12.363 7.798 14.984 10.517 1.314 1.364 1.766 1.536-.496 1.504-4.573-.066-14.442-8.602-17.01-9.006-2.741-.43 2.714 7.606-9.478-3.015-2.393-2.084-5.027-4.476-7-7-5.339-2.637-12.351-8.423-15-14-5.321-4.169-14.664-21.394-17-28-3.043-2.962-5.426-8.093-7-12l-47.523-60.984c26.683 14.721 53.366 35.719 66.523 63.984 3.685 5.635 18.524 30.89 19 36 1.019 1.659 2.931 3.341 4 5 5.641 5.23 10.353 11.812 16 17m-13.007 11.994c-10.166-4.959-20.793-11.683-27.002-21.486-1.393-2.2-9-17.379-5.472-18.496 1.012-.321 8.482 15.819 10.511 18.458 6.268 8.156 15.984 13.204 21.963 21.524m10.007 23.006c-1.995-.27-3.538-1.552-5.501-1.945-1.097-.22-2.6 2.287-5.716 1.779-1.478-.241-9.43-5.9-12.783-6.834-13.238-3.687 6.502 7.289-5.418 5.92-5.109-.587-7.879-5.398-11.582-7.92-10.823-7.371-17.715-12.798-26-23-4.144-5.103-8.611-9.658-11-16-24.873-38.418-46.645-79.914-87.995-103.506 30.3 6.071 57.967 27.985 75.995 52.506 6.928 8.171 13.998 19.441 19 29 6.561 9.257 10.024 17.021 18 26 4.011 4.515 11.293 13.385 18 13-7.962-9.46-18.571-19.626-21.506-31.995 12.171 16.376 25.239 31.504 41.506 43.995 16.825 10.934 31.524 17.212 51.988 18.518-11.089 5.227-25.4 2.049-36.988.482m200 22c-.893-8.719-5.165-.826-8.994-.006-.867-5.002 7.046-2.981 4.5-8.988-3.63 5.79-5.881.862-6.799 1.115-14.731 4.069-20.855 11.196-39.707 13.879-10.744 1.529-23.53 3.971-33.994.012 21.062.405 50.618-9.186 65.994-24.012 1.695-1.635 4.57-4.849 5.488-7.011-5.354 1.993-10.242 4.771-15.488 7.011-1.994.851-3.923 2.246-6 3-2.551 2.759-10.736 7.398-14 8.501-6.985 2.36-23.06 3.838-29.416 3.557-2.23-.099-36.581-3.908-32.578-7.052 1.489-1.17 29.312-1.526 33.994-3.006 4.623-1.087 9.198-2.814 14-3 7.802-3.637 15.112-5.873 23-10 .261-.137.74.139 1 0 .059-2.282 2.274-2.118-.444-3.046-8.022-2.739-26.33 11.339-31.556 7.033-1.121-.924 6.091-2.505 1-2.987-13.593 4.637-31.735 5.19-46.006 4.995l45.006-18.995c4.985-4.447 10.399-9.354 16-13 2.958-3.285 5.54-6.182 9-9 2.344-4.837 6.847-8.577 10-13 1.931-2.71 10.189-17.671 12.517-17.99 6.469-.885-7.939 16.145-8.517 16.99-2.877 4.203-5.146 8.786-8 13-1.403 6.85 7.156-2.66 7.958-3.541 8.195-8.999 12.807-20.813 20.042-30.459 1.148-5.241 14.874-23.347 19-28 2.041-2.303 3.616-4.974 6-7 18.051-20.096 40.874-36.079 66.993-43.994-11.155 10.372-23.919 18.878-34.502 29.985-10.917 11.459-21.142 25.572-29.491 39.009-3.812 6.134-6.833 15.466-13 20-1.02 1.642-1.992 3.44-3 5 3.192 15.426 11.435-17.972 20-15 24.384-38.857 59.519-65.748 106-73 9.376-2.102 24.171-4.886 33.506-4.967 14.244-.122 39.685 5.402 53.494 9.967 18.092 5.981 34.86 17.462 48 31 10.778 11.105 21.426 24.907 23 41 .126 1.288.018 2.697 0 4h1c7.949 37.73-20.218 85.511-61 86.988 40.556-11.424 61.836-48.911 53-89.988-2.87-10.695-8.209-18.861-14-28-2.041-2.606-4.683-5.634-7-8-35.999-34.506-87.279-39.684-132-19-8.626 4.289-16.751 9.077-25 14-23.178 17.756-32.422 34.472-51 53-1.047 4.508 6.539 4.093 4.892 9.316-.523 1.657-3.933 2.448-4.969 4.107-2.678 4.287-4.446 13.344-11.914 9.581 6.436 7.327.272 6.989-.024 8.717-.203 1.187-.887 11.698 3.015 7.279 1.585-3.864 10.038-13.722 13-18 .579-.837 11.358-21.784 11.898-13.619.125 1.885-11.408 19.952-13.898 22.619-2.824 5.354-6.664 11.714-11 16-3.097 5.444-9.531 12.485-14 17-11.492 14.4-29.622 26.066-47 30.987 7.137-5.303 14.828-9.703 22-14.987m-235 6c-3.905 1.5-15.76-4.056-18.345-2.082-1.521 1.163-.27 3.778-.663 4.085-.469.367-8.314-2.823-7.865 5.643.162 3.063 21.949 10.468 22.872 11.366 4.462 4.34-34.496-5.162-32.999-12.012-2.912-1.328-6.238-4.305-9-6-7.133-4.378-14.529-8.424-20-15-10.178-6.919-22.117-23.667-29-34-.532-.798-2.212-1.742-3-3-2.781-4.402-5.002 1.119-5.988-.007-1.142-1.305-1.335-13.644-9.004-8.997 5.211-14.955-4.099-.401-6.023-11.543-5.144-29.774 18.606 10.605 20.514 10.523 4.275-.184-1.169-6.086-1.237-6.463-.141-.79 1.973-2.605 1.61-3.881-.583-2.05-4.275-2.618-4.724-4.234-.852-3.063 4.037-6.929 3.807-7.838-1.436-5.669-11.925-10.385-14.769-13.807-.701-.844 1.083-2.935-.089-4.296-5.914-6.865-13.155-12.815-18.097-20.457-46.28-41.228-104.318-61.24-160-23l-20 19.988c4.013-4.369 7.671-.641 7.984-.992.69-.772 1.425-7.529 4.667-7.917 1.576-.189 2.977 3.791 8.769 2.875 3.382-.534 9.308-8.814 10.583-4.431.827 2.842-5.785 8.06-8.003 9.477-1.434 1.924-6.486 5.047-8 7-6.03 7.775-12.064 16.489-15 26-1.901 6.157-1.803 12.553-3 18-.518 2.353-3.576 17.214-7.519 8.959-2.628-5.499 6.454-7.909 4.406-18.354-1.553-7.918-4.674 1.256-6.88-.611-2.324-1.967 3.178-13.571-3.007-11.994-9.393 38.407 3.809 65.955 38 84 6.344 2.613 18.237 3.322 21.993 7.993-8.492.552-17.43-.877-24.993-4.993-44.013-13.691-62.173-90.647-26-122 16.358-21.179 41.356-34.718 67-41 64.204-15.728 130.887 3.982 171 57 12.541 16.576 22.51 35.112 33 53 2.083 2.506 5.173 4.796 6 8 7.515 5.978 14.305 13.173 22 19 4.472 2.657 9.535 4.566 14 7 2.217 1.209 5.188 1.851 7 3 3.241.241 6.003 1.958 9 3 11.432 2.825 23.523 3.696 35 6 31.544.173 10.968 6.276-4.453 7.038-6.624.328-30.333.263-36.039-.571-7.631-1.116-13.236-8.236-21.506-6.458 9.379 6.789 31.334 15.991 42.498 15.991h20c.165 0 1.745 1.541 1.497 1.985-1.254 2.24-41.017 3.807-45.997-.985-.629-.105-1.379.115-2 0m414-65c.109-3.814 1.216-5.629 1.506-8.994-9.723 8.906-11.866 22.735-10.506 34.994 5.612 50.592 71.45 51.412 104.005 24.505 47.957-39.635 43.883-123.253 19.851-174.862-36.445-78.267-117.819-105.919-199.85-95.631 46.776 10.289 92.136 25.019 127.994 57.988 17.584 16.167 12.463 12.66-3 3-95.832-59.869-232.406-21.169-304.509 58.991-30.066 33.426-36.496 56.832-53.491 96.009-1.726 9.818-1.718 18.2-6 4-15.21-50.434-38.33-89.139-79-123-27.496-22.892-61.649-42.451-96-53-56.793-17.441-123.095-16.163-176 12-7.72 4.109-35.99 24.725-13 3 34.88-32.962 80.406-49.367 126.992-58.014-118.268-19.054-219.961 60.985-215.027 183.549 2.109 52.396 33.555 107.053 92.509 103.44 56.418-3.458 59.388-75.498 31.818-81.77-4.041-.92 5.168 7.791 6.424 13.587 11.174 51.576-85.231 51.612-72.432-22.008 7.225-41.56 51.833-53.2 87.913-45.481 88.572 18.949 106.25 125.886 187.269 152.73 36.185 11.989 76.206 12.454 106.997-12.069 2.379-1.895 13.03-13.999 14.022-14.026 1.241-.035 11.541 12.047 14.053 14.024 22.625 17.804 48.636 21.903 76.929 19.005 102.249-10.473 112.352-115.405 195.176-151.824 38.623-16.984 98.151-13.989 107.907 35.806 12.9 65.845-74.282 84.468-72.55 24.051" fill="#1e1e1e" transform="matrix(1 0 0 -1 435.9783 1047.0089)"/><path d="m0 0c2.804-.682 8.964 3 10.5 3h15.5c3.042-2.622-19.221-2.181-13.02-5.519 4.098-2.206 18.836-1.007 24.02-1.481 1.323-.088 2.674.066 4 0 14.714-.793 12.357-.909 20.927-10.573 1.214-1.369 4.363-1.343 5.006-3.048.83-2.2-3.518-6.214-.152-9.363 6.476-6.06 11.981 5.699 15.207 1.497 3.984-5.189-5.374-3.625-3.969-7.992 1.93-6.001 99.859-1.837 111.981-1.521 32.779-.126 65.378 2.725 98 5 39.658 2.766 80.169 5.202 119.475 11.025 5.304.786 39.692 6.484 40.406 8.638 1.182 3.561-5.584 6.337 6.119 5.325-1.417-1.806-6.917-6.866-1.497-7.024 3.574-.104 6.604 6.954 7.084 7.098 5.889 1.772 18.875-2.256 25.413.938 20.237.621 48.175.039 67.528 2.972 1.478.224 3.092.145 3.472 2.028h-59.5c-.117 0-2.329 1.867-.996 2.006l130.496-.006c15.099-2.641 22.267-17.982 19.756-32.255-1.313-7.465-14.516-5.818-12.203-12.426-1.037 1.348-12.914 5.733-15.185 6.55-14.188 5.107-19.804-.689-20.368-14.869l-587.481.019c-25.706 2.141-33.016 37.813-10.519 49.981" fill="#1e1e1e" transform="matrix(1 0 0 -1 502.3617 702.1277)"/><path d="m0 0-130.496.006c-1.333-.139.879-2.006.996-2.006h59.5c-.38-1.883-1.994-1.804-3.472-2.028-19.353-2.933-47.291-2.351-67.528-2.972-7.639-.234-15.357.173-23 0l43.994 3.993c-53.655.659-107.322.988-160.994 1.007-36.65.013-73.35-.01-110 0-1.998.002-4.002.001-6 0-30.589-.769-61.479 1.023-92 0-18.928-.639-38.094.86-57 0l-62.994-1.007c-.205-2.48-.212-1.688 1.471-1.999 4.304-.796 13.958-1.691 18.523-1.994-5.184.474-19.922-.725-24.02 1.481-6.201 3.338 16.062 2.897 13.02 5.519h-15.5c-1.536 0-7.696-3.682-10.5-3 4.37 2.364 8.336 4.15 13.456 4.044z" fill="#323232" transform="matrix(1 0 0 -1 1123 697)"/><path d="m0 0c-26.724-25.224-60.141-44.193-96-53 34.351 10.549 68.505 30.108 96 53" fill="#626262" transform="matrix(1 0 0 -1 736 1072)"/><path d="m0 0c-1.36-12.259.783-26.088 10.506-34.994-.29 3.365-1.397 5.181-1.506 8.994l9.994-14.506c-15.872 1.831-24.455 27.137-18.994 40.506" fill="#494949" transform="matrix(1 0 0 -1 1130 923)"/><path d="m0 0c-3.851-1.609-12.03 9.754-13 3-22.99 21.725 5.281 1.109 13-3" fill="#6f6f6f" transform="matrix(1 0 0 -1 464 1113)"/><path d="m0 0c15.463 9.66 20.584 13.168 3-3z" fill="#686868" transform="matrix(1 0 0 -1 1179 1108)"/><path d="m0 0c-1.521 3.505-2.118 9.511-6 4 4.282 14.2 4.274 5.818 6-4" fill="#919191" transform="matrix(1 0 0 -1 821 953)"/><path d="m0 0c4.565-5.729 10.381-11.053 15-17 38.287-49.299 60.046-87.539 130-95 1.786-2.722.964-1.881-1.483-2.001-8.529-.417-18.073.684-26.517 2.001-46.481 7.252-81.616 34.143-106 73-1.067 1.701-2.092 5.538-3 7 7.121 4.241-2.163 14.237-3.809 18.777-.963 2.656 1.388 8.583-4.191 13.223" fill="#4c4c4c" transform="matrix(1 0 0 -1 969 947)"/><path d="m0 0c-5.399 3.938-13.585-7.587-11.683-9.677.695-.764 20.398 3.321 11.683 9.677m-12.69 7.318c-1.496 6.85 37.461 16.352 33 12.012-.923-.898-22.711-8.303-22.873-11.367-.448-8.466 7.396-5.275 7.865-5.642.394-.308-.858-2.923.664-4.085 2.585-1.975 14.439 3.582 18.344 2.082-16.777-3.109-34.592-11.386-47-23-14.731-10.827-17.92-18.308-28-32-17.937-20.272-32.515-43.136-51-63-2.426-.482-4.272-2.462-6-4 4.943 7.642 12.184 13.591 18.097 20.457 1.172 1.36-.612 3.451.089 4.295 2.844 3.423 13.333 8.138 14.769 13.807.231.91-4.659 4.776-3.807 7.839.449 1.616 4.141 2.184 4.724 4.234.363 1.275-1.751 3.091-1.609 3.881.067.376 5.512 6.278 1.236 6.462-1.908.083-25.658-40.297-20.514-10.522 1.925 11.142 11.234-3.413 6.024 11.542 7.668-4.646 7.861 7.693 9.004 8.998.985 1.125 3.206-4.395 5.987.007-2.779-4.438-7.212-11.691-7.505-16.995 5.001 5.342 8.213 12.22 12.505 17.995 7.562 10.174 15.763 19.411 24 29 8.074 5.883 14.995 12.979 23 19 4.736 3.561 10.797 6.245 15.512 9.994.228 2.649-5.834-.685-6.512-.994" fill="#232323" transform="matrix(1 0 0 -1 700.6899 884.3175)"/><path d="m0 0c8.074-11.665 13.512-16.111 25-24 55.682-38.24 113.721-18.228 160 23 1.727 1.539 3.574 3.518 6 4-8.48-9.113-17.909-17.101-26.02-26.509l-6.98-1.48 1.994-.999c-3.57-.815-30.795-11.822-30.988-13.518-1.051-9.224 39.748 12.198 41.994 13.506-17.759-12.959-42.196-23.464-64-26-13.62-1.584-27.376-1.391-41 0-25.644 6.282-50.641 19.821-67 41-12.28 15.899-24.931 45.002-14.012 64-.716-20.654 3.377-36.19 15.012-53" fill="#a1a1a1" transform="matrix(1 0 0 -1 408 1005)"/><path d="m0 0c4.918 6.282 7.135 7.606 10.856 15.644 3.772 8.146 9.82 37.968 10.144 15.356.019-1.303.126-2.712 0-4-4.628-15.818-12.954-28.246-23-41-13.14-13.538-29.907-25.018-48-31-18.546-4.765-37.087-4.948-56-3-27.222 5.834-56.721 17.593-77 37h1c1.795-1.473 3.472-1.591 4-2 3.656-2.833 6.541-6.209 10.698-8.802 6.973-4.349 35.974-22.552 39.302-11.198 43.724-16.258 88.534-8.139 121 25 2.318 2.366 4.96 5.394 7 8" fill="#9a9a9a" transform="matrix(1 0 0 -1 1223 1009)"/><path d="m0 0c-3.852-10.226-.439-1.219 4.003-3.522-.253-2.613-1.396-4.961-2.003-7.478-.296-1.227-1.488-3.423-2-5-3.186-4.587-5.875-9.854-8-15-2.591-5.417-18.579-28.846-18.984-32.523-.557-5.061 13.752 11.069 14.984 12.523-18.028-24.521-45.695-46.435-75.995-52.505 41.35 23.591 63.123 65.087 87.995 103.505" fill="#474747" transform="matrix(1 0 0 -1 682 960)"/><path d="m0 0c-40.113-53.018-106.796-72.728-171-57 13.624-1.391 27.38-1.584 41 0l-21.994-2.987c37.485-1.912 68.84 8.608 98.994 29.987-.28-3.354.81-1.866 2.579-1.081 9.081 4.032 12.483 8.03 19.914 14.084 1.702 1.386 4.369 1.295 5.371 2.153.596.511-.146 3.596.145 3.849 1.437 1.249 8.761 5.526 9.947 6.501 1.027.843 2.227 5.577 3.544 5.469 6.431-.526-6.94-21.921 11.5-.975" fill="#4a4a4a" transform="matrix(1 0 0 -1 645 1000)"/><path d="m0 0c18.852-2.683 24.977-9.81 39.708-13.879.917-.253 3.169 4.675 6.798-1.115 2.547 6.007-5.367 3.986-4.499 8.988 3.829-.82 8.1-8.713 8.993.006 2.862-2.109 6.272-4.745 9-7 10.579-8.747 22.188-25.315 30-31 .122-.608-.182-1.557 0-2-3.902 4.419-3.218-6.092-3.014-7.279.296-1.728 6.46-1.39.023-8.717 7.468 3.763 9.236-5.294 11.914-9.581 1.036-1.659 4.446-2.449 4.969-4.107 1.647-5.223-5.939-4.808-4.892-9.316-.406.404-1.45.604-2 1-8.586 12.645-16.248 25.111-26 37-8.766 10.686-14.208 18.114-26 26-2.13 1.425-3.156 1.482-4 2-10.336 11.14-27.242 14.537-41 19" fill="#2c2c2c" transform="matrix(1 0 0 -1 909 884)"/><path d="m0 0c1.008-1.56 1.98-3.358 3-5 4.157-6.694 6.795-14.663 13-20 8.349-13.437 18.574-27.55 29.491-39.009 10.583-11.107 23.348-19.613 34.502-29.985-26.119 7.916-48.942 23.898-66.993 43.994 16.188-13.758-2.794 13.159-6 19-1.911 5.255-4.717 9.951-7 15-.821 1.815-10.102 19.096-8.506 18.994.851-.055 6.652-9.864 8.5-7.988.891.905-7.234 12.3-6.994 14.994 2.375-3.352 4.755-6.525 7-10" fill="#484848" transform="matrix(1 0 0 -1 960 971)"/><path d="m0 0c-18.44-20.946-5.069.449-11.5.975-1.317.108-2.517-4.626-3.544-5.469-1.186-.975-8.51-5.252-9.947-6.501-.291-.253.451-3.338-.145-3.849-1.002-.858-3.669-.767-5.371-2.153-7.431-6.054-10.833-10.052-19.914-14.084-1.769-.785-2.859-2.273-2.579 1.081 5.805 4.116 10.553 7.185 16 12 5.253 2.579 10.645 7.602 13 13 10.109 10.911 19.281 23.931 28 36 1.025-5.958 7.779 7.513 8.937 8.563.739.671 9.538 7.122 10.087 7.424 2.326 1.277.639-5.218 9.976 6.013-10.489-17.888-20.458-36.423-33-53" fill="#555" transform="matrix(1 0 0 -1 645 1000)"/><path d="m0 0c4.98 4.792 44.743 3.225 45.997.985.248-.444-1.332-1.985-1.497-1.985h-20c-11.164 0-33.118-9.201-42.498-15.99 8.27-1.779 13.876 5.341 21.506 6.457 5.706.834 29.415.899 36.039.572 15.421-.763 35.997-6.866 4.453-7.039.709.142 4.943 1.238 4.994 1.494 1.278 6.448-34.63 2.044-37.994-.494-5.126-.742-11.256-2.886-16-5-2.452-.44-5.776-2.347-8.624-3.03-1.946-.467-.356 2.586-3.447 1.624-7.657-2.384-23.132-15.476-28.929-21.594-3.34-3.525-7.834-7.733-10-12-3.939-4.118-8.559-8.501-12-13 .949 5.261-8.587-5.554-9-6 2.401 4.031 5.222 8.247 8 12 8.107 10.953 23.667 29.656 34 38 17.257 13.935 40.74 23.655 63 25.012-6.717 3.95-20.166 1.294-28-.012" fill="#323232" transform="matrix(1 0 0 -1 727 884)"/><path d="m0 0 13.506-18.994c1.045 7.642-12.045 28.965 3.494 10.994 6.124-7.083 16.758-24.758 8-2 7.948-15.479 19.412-32.594 30.492-46.008 2.843-3.442 18.191-17.237 18.497-18.509 1.086-4.504-18.049 8.53-19.46 9.546-19.89 14.323-44.044 42.826-54.529 64.971" fill="#494949" transform="matrix(1 0 0 -1 902 991)"/><path d="m0 0c1.17-.399 19.82-12.532 19.994-9.506.064 1.115-10.832 7.698-5.483 7.523 8.282-.271 42.497-25.873 43.489-37.017-5.269 6.676-8.734 12.259-15.539 17.961-3.989 3.343-22.369 17.04-12.461 5.039.156-3.467-.34-1.908-2.329-.855-6.809 3.603-18.079 9.947-6.671-2.145 1.219-1.292 3.832-2.706 5-4 6.564-7.271 14.385-20.431 21-26 3.46-5.958 6.904-14.774 11-20 .089-.633-.132-1.399 0-2-7.235 9.646-11.846 21.461-20.041 30.459-.803.881-9.362 10.391-7.959 3.541h-1c-1.745 3.297-9.745 11.579-13 14-3.932 4.838-17.327 15.34-22.678 16.823-7.084 1.964 4.674-6.928 5.678-7.823l-45.006 18.995c14.271.195 32.413-.358 46.006-4.995" fill="#434343" transform="matrix(1 0 0 -1 890 915)"/><path d="m0 0c5.091.482-2.121 2.063-1 2.987 5.226 4.306 23.535-9.772 31.556-7.033 2.718.929.503.764.444 3.046 9.462-5.05 16.962-12.717 25-17 2.508-3.113 5.222-6.127 8-9 7.766-12.258 15.344-24.673 23-37 .908-1.462 1.933-5.299 3-7-8.565-2.972-16.808 30.426-20 15-2.245 3.475-4.625 6.648-7 10-.523.739-1.461 1.259-2 2-.538.739-1.445 1.267-2 2-.342.452-.323 2.142-1 3-.992 11.144-35.207 36.746-43.489 37.017-5.349.175 5.547-6.408 5.483-7.523-.174-3.026-18.824 9.107-19.994 9.506" fill="#252525" transform="matrix(1 0 0 -1 890 915)"/><path d="m0 0c8.057 8.727 23.797 24.579 11 0-13.079-25.121-36.779-53.063-61.489-67.011 17.593 21.106 31.907 46.882 50.489 67.011" fill="#454545" transform="matrix(1 0 0 -1 752 993)"/><path d="m0 0c-7.505-18.629 9.977 5.839 14.995 8.992-6.3-18.739-13.428-32.652 4.005-5.992-13.156-28.265-39.84-49.263-66.523-63.984z" fill="#454545" transform="matrix(1 0 0 -1 705 1008)"/><path d="m0 0c.307-.358.7-.647 1-1l28-38c2.213-3.034 24.336-28.664 22.994-29.994-1.874-1.855-27.458 19.968-30 22.488-13.477 13.359-23.522 29.802-33.994 45.506l-3.994 9.994c7.057-2.534 5.575-15.996 15.994-8.994" fill="#464646" transform="matrix(1 0 0 -1 882 991)"/><path d="m0 0c1.493.392 25.953 4.237 21.996.016-.701-.748-15.815-4.003-19.658-5.854-5.603-2.7-12.303-8.296-17.338-12.162-16.267-12.491-29.335-27.619-41.505-43.994 2.935 12.368 13.543 22.535 21.505 31.994 8.78 10.431 19.849 23.381-1 6 5.674 9.793-4.461 3.032-4.999 5.014-.202.744 3.118 2.972 1.993 3.979-2.436 2.181-15.077-11.23-8.488 1.001-4.456-3.027-7.697-7.299-11.506-10.994-2.164-2.099-4.156-2.651-7-6h-1c8.286 10.202 15.177 15.629 26 23 6.202-.562-3.956-3.923-1.486-6.014 8.189-.412 13.002 5.385 18.486 7.014 2.335.694 5.385-1.35 8.003-.584 4.268 1.248 11.489 6.4 15.997 7.584" fill="#4e4e4e" transform="matrix(1 0 0 -1 760 913)"/><path d="m0 0c21.9-7.563 25.002-21.688 38-38 5.579-4.64 3.228-10.567 4.191-13.223 1.646-4.54 10.93-14.536 3.809-18.777-7.656 12.327-15.234 24.742-23 37 2.596-2.685 5.145-5.576 7.988-8 2.403 10.426-5.754 16.518-13.988 22-4.26 5.265-15.688 12.18-22.012 14.488-6.744 2.462-13.659 5.329-5.988-2.488-7.888 4.127-15.198 6.363-23 10-1.97.918-3.77 1.852-5.997 2.016-.752 3.291 3.749 1.995 5.468 1.955 6.06-.141 28.464-4.877 34.529-6.971" fill="#676767" transform="matrix(1 0 0 -1 931 909)"/><path d="m0 0c-4.414-2.281-.841-15.112 0-19-6.338-2.715 2.772-11.039 3.09-11.658.326-.633-1.596-3.737-1.085-4.334 2.908-3.403 2.33 4.514 1.995 5.992 4.259-6.733 7.559-12.023 13-18 3.821-4.198 18.703-17.024 9-4 2.219-1.417 8.83-6.635 8.003-9.477-1.275-4.383-7.201 3.897-10.583 4.431-5.791.916-7.192-3.064-8.768-2.875-3.243.388-3.978 7.145-4.668 7.918-.313.35-3.97-3.378-7.983.991l19.999-19.988c-11.488 7.889-16.926 12.335-25 24-.649 1.607-1.186 3.486-2 5 3.185-.326 1.978.766 1.186 2.685-1.824 4.416-4.68 21.141-7.186 10.315-.755 2.232-1.341 3.304-2 6 6.185-1.577.683 10.027 3.007 11.994 2.206 1.867 5.327-7.307 6.88.611 2.048 10.445-7.033 12.855-4.406 18.355 3.944 8.254 7.002-6.607 7.519-8.96" fill="#262626" transform="matrix(1 0 0 -1 411 959)"/><path d="m0 0c18.578-18.528 27.823-35.243 51-53 9.071-6.949 17.207-14.561 29-17 2.463-1.103 4.411-2.037 7-3-3.328-11.354-32.329 6.849-39.302 11.198-4.157 2.593-7.042 5.969-10.698 8.802 3.349 4.97-4.957 5.015-5.836 6.17-.585.767.35 3.595-1.124 5.365-3.595 4.316-10.254 8.89-12.527 12.413-1.253 1.941 3.765 5.312-3.506 3.058-1.053 2.934 2.664 1.201 1.985 3.476-.424 1.419-15.172 19.365-17.992 23.518.55-.396 1.594-.596 2-1" fill="#a2a2a2" transform="matrix(1 0 0 -1 1008 969)"/><path d="m0 0c3.166.985 7.64 1.606 11 1.988-1.834-2.161-5.424-3.628-8-4.988-34.191-18.045-47.393-45.593-38-84 .659-2.696 1.245-3.768 2-6 1.807-5.339 3.41-8.183 6-13 .814-1.514 1.351-3.393 2-5-11.635 16.81-15.728 32.346-15.012 53-10.919-18.998 1.732-48.101 14.012-64-36.173 31.353-18.013 108.31 26 122" fill="#565656" transform="matrix(1 0 0 -1 433 894)"/><path d="m0 0c-.42 6.988.641 14.43-.133 21.367-.451 4.05-1.982 14.208-5.86 16.627 1.897-14.001 1.636-27.416-2.007-40.994 8.836 41.077-12.444 78.564-53 89.988 40.782-1.476 68.949-49.258 61-86.988" fill="#505050" transform="matrix(1 0 0 -1 1245 978)"/><path d="m0 0c5.246-2.24 10.135-5.018 15.489-7.011-.919 2.162-3.794 5.376-5.489 7.011h2c2.522-1.96 5.54-4.82 8-7 7.775-9.435 15.809-18.937 24-28 7.71-14.36 19.837-25.761 29-39 .589-.851.737-2.018 1-3-7.816 8.865-14.991 18.001-21.993 27.513l.993-6.513c-4.619 5.947-10.435 11.271-15 17-12.998 16.312-16.1 30.437-38 38z" fill="#3d3d3d" transform="matrix(1 0 0 -1 931 908)"/><path d="m0 0c-9.261-6.345-20.822-20.907-23.505-31.994 3.86 6.92 9.467 12.123 14.505 17.994v-2c-7.976-8.979-11.438-16.743-18-26-6.078-8.576-29.011-42.927-15-9 2.125 5.146 4.814 10.413 8 15-1.392-4.289-8.199-16.031-4.005-18.006 1.959 7.189 7.306 18.744 11.005 25.006 6.726 11.386 14.431 18.448 22 29-.172-5.185 1.954 2.34 5 0" fill="#959595" transform="matrix(1 0 0 -1 716 940)"/><path d="m0 0c.928-.394 10.536-11.374 14.54-13.973 11.761-7.632 31.577-15.863 45.274-18.726 3.659-.765 35.138-3.017 35.183-4.792.061-2.393-28.144.214-30.411.564-18.762 2.9-40.124 11.044-55.023 22.977-.887.71-20.472 18.582-9.563 13.95" fill="#2e2e2e" transform="matrix(1 0 0 -1 435.9783 1047.0089)"/><path d="m0 0c-4.682 1.48-32.505 1.836-33.994 3.006-4.002 3.144 30.349 6.953 32.578 7.052 6.357.281 22.431-1.197 29.416-3.557 3.265-1.103 11.449-5.742 14-8.501-8.203 2.979-53.486 10.196-60.492 7.973-1.287-.409-1.844.874-1.507-1.967 6.781-.593 13.412-2.458 19.999-4.006" fill="#2d2d2d" transform="matrix(1 0 0 -1 883 903)"/><path d="m0 0c8.658 4.276.674-1.745 2.006-2.994 1.574-1.474 11.377 9.106.994-7.006-1.069-1.659-2.981-3.341-4-5 .139 1.498-2.181 6.445-3.486 5.992-2.768-.961-15.686-27.203-15.379-30.646.334-3.755 4.986 1.456 5.865 2.654-6.816-10.773-11.753-17.136-5.991 1.491l-3.009-1.491c4.592 7.642 6.75 17.087 11.991 24.509-.948 1.437-3.147-.848-3.991-1.509 2.649 5.577 9.661 11.363 15 14" fill="#777" transform="matrix(1 0 0 -1 744 954)"/><path d="m0 0c-10.419-7.002-8.937 6.46-15.994 8.994l3.994-9.994c-1.957 2.935-18.81 25.062-16.993 26.994.608.647 13.838-8.526 14.998-9.489 5.851-4.859 9.207-10.933 13.995-16.505" fill="#393939" transform="matrix(1 0 0 -1 882 991)"/><path d="m0 0c-2.915-2.128-12.754-12.386-9.988-16 .827-1.079 18.43 13.886 21.988 16-7.695-5.827-14.485-13.022-22-19-4.912-3.907-22.177-19.08-13-1 2.166 4.267 6.66 8.475 10 12z" fill="#8a8a8a" transform="matrix(1 0 0 -1 694 920)"/><path d="m0 0c7.834 1.306 21.283 3.962 28 .012-22.26-1.357-45.743-11.077-63-25.012v1c11.372 8.895 22.23 14.42 35 20.987-17.752-1.1-34.916-9.636-49-19.987 12.408 11.615 30.223 19.891 47 23 .621.115 1.371-.105 2 0" fill="#acacac" transform="matrix(1 0 0 -1 727 884)"/><path d="m0 0-24.993 23.988c6.405.116 35.419-18.808 37.514-18.973 2.656-.21.988 1.431 1.479 1.985 1.952-2.523 4.462-4.642 5.984-7.522l-2.984-.478c-.319 1.044-16.083 16.248-5-1l-.978-3.989c-.841 3.205-16.316 17.69-17.539 17.979-3.879.916 5.363-10.355 6.517-11.99" fill="#383838" transform="matrix(1 0 0 -1 883 961)"/><path d="m0 0c13.758-4.463 30.664-7.86 41-19-13.689 8.404-27.826 15.154-44 16.988 14.433-6.033 24.736-12.459 37-21.988h-2c-15.375 14.826-44.932 24.417-65.994 24.013 10.464 3.959 23.25 1.516 33.994-.013" fill="#b9b9b9" transform="matrix(1 0 0 -1 909 884)"/><path d="m0 0c2.077-.754 4.006-2.148 6-3v-1c-6.065 2.094-28.469 6.83-34.529 6.971-1.719.04-6.22 1.336-5.468-1.955 2.227-.164 4.027-1.098 5.997-2.016-4.802.186-9.376 1.913-14 3-6.587 1.548-13.218 3.413-19.999 4.006-.337 2.841.22 1.558 1.507 1.967 7.006 2.223 52.289-4.994 60.492-7.973" fill="#454545" transform="matrix(1 0 0 -1 925 905)"/><path d="m0 0c3.125 2.281 30.747 17.409 26 7-4.465-2.434-9.528-4.343-14-7-3.558-2.114-21.161-17.079-21.988-16-2.766 3.614 7.073 13.872 9.988 16" fill="#a1a1a1" transform="matrix(1 0 0 -1 694 920)"/><path d="m0 0c-2.589.963-4.537 1.897-7 3-1.139.51-2.789 2.398-4 3 44.722-20.684 96.001-15.506 132 19-32.466-33.139-77.276-41.258-121-25" fill="#686868" transform="matrix(1 0 0 -1 1095 1042)"/><path d="m0 0c-17.433-26.66-10.305-12.747-4.005 5.992-5.018-3.153-22.5-27.621-14.995-8.992 1.574 3.907 3.957 9.038 7 12-.698-1.973-2.467-5.09-1.506-6.994 5.041 3.855 7.266 6.602 10.506 11.994l3.009 1.491c-5.762-18.627-.825-12.264 5.991-1.491 4.547 7.186 8.538 14.734 13 22-.476-5.11-15.315-30.364-19-36" fill="#656565" transform="matrix(1 0 0 -1 724 1005)"/><path d="m0 0 7.515-8.992 1.491 4.504c1.987-5.137 5.629-9.89 7.994-14.512.927-1.812 1.247-3.335 2-5 .305-.675.74-1.367 1-2-1.096-.991-.812-4.803-1.013-5-.264-.259-2.292 1.566-2.987 2-4.397 2.744-12.666 16.914-16 22-.402.613-.599 1.387-1 2-.962 1.532 1.026 4.746 1 5" fill="#aaa" transform="matrix(1 0 0 -1 900 963)"/><path d="m0 0 2-1c2.283-5.049 5.089-9.745 7-15 1.828-5.028 6.699-15.356 0-12-4.125 4.653-17.852 22.759-19 28-.132.601.089 1.367 0 2 4.198-5.356 14.812-16.566 10-2" fill="#7d7d7d" transform="matrix(1 0 0 -1 958 986)"/><path d="m0 0 4-7h-1c-15.539 17.971-2.449-3.352-3.494-10.994l-13.506 18.994c-.738 1.558-2.418 2.733-2 5 11.372-13.622 2.865 9.008-2 14 .667-.427 2.757-2.264 2.988-1.999.54.617-.807 3.032-.988 3.999 3.334-5.086 11.603-19.256 16-22" fill="#737373" transform="matrix(1 0 0 -1 916 992)"/><path d="m0 0c-9.337-11.231-7.65-4.736-9.976-6.013-.549-.302-9.348-6.753-10.087-7.424-1.158-1.05-7.912-14.521-8.937-8.563 3.606 4.991 5.78 10.483 10 16 3.441 4.499 8.061 8.882 12 13-9.177-18.08 8.088-2.907 13 1-.827-3.204-3.916-5.494-6-8" fill="#636363" transform="matrix(1 0 0 -1 678 947)"/><path d="m0 0c-13.809-4.565-39.25-10.089-53.494-9.966-9.335.08-24.13 2.864-33.506 4.966 8.444-1.317 17.988-2.418 26.517-2.001 2.447.12 3.269-.721 1.483 2.001 6.9-.736 14.038-1.067 20.994-.987-6.032 1.068-11.953 1.692-17.994 2.987 18.913-1.948 37.454-1.765 56 3" fill="#373737" transform="matrix(1 0 0 -1 1173 1054)"/><path d="m0 0c1.568-1.938 3.444-3.906 4.002-6.476-1.165-2.26-4.424.635-6.002 1.476-8.038 4.283-15.538 11.95-25 17-.26.139-.739-.137-1 0-7.671 7.817-.756 4.95 5.988 2.488 6.324-2.308 17.752-9.223 22.012-14.488" fill="#bababa" transform="matrix(1 0 0 -1 948 928)"/><path d="m0 0c.844.661 3.043 2.946 3.991 1.509-5.241-7.422-7.399-16.867-11.991-24.509-3.24-5.392-5.465-8.139-10.506-11.994-.961 1.904.808 5.021 1.506 6.994 2.337 6.607 11.679 23.831 17 28" fill="#a3a3a3" transform="matrix(1 0 0 -1 729 968)"/><path d="m0 0c7.386 1.324 16.285 2.157 5-5-1.811-1.149-4.783-1.791-7-3 4.747 10.409-22.875-4.719-26-7l-13-8c5.797 6.118 21.272 19.21 28.929 21.594 3.091.962 1.501-2.091 3.447-1.624 2.848.683 6.172 2.59 8.624 3.03" fill="#676767" transform="matrix(1 0 0 -1 722 905)"/><path d="m0 0c3.643 13.578 3.904 26.993 2.007 40.994 3.878-2.419 5.409-12.577 5.86-16.627.774-6.937-.287-14.379.133-21.367h-1c-.324 22.612-6.372-7.21-10.144-15.356-3.721-8.038-5.938-9.362-10.856-15.644 5.791 9.139 11.131 17.306 14 28" fill="#727272" transform="matrix(1 0 0 -1 1237 981)"/><path d="m0 0c-5.979-8.319-15.695-13.367-21.964-21.523-2.028-2.64-9.498-18.779-10.511-18.459-3.528 1.118 4.079 16.297 5.473 18.497 6.209 9.803 16.835 16.526 27.002 21.485" fill="#565656" transform="matrix(1 0 0 -1 749.9937 935.0063)"/><path d="m0 0c-1.232-1.454-15.541-17.584-14.984-12.523.405 3.677 16.393 27.106 18.984 32.523-14.011-33.927 8.922.424 15 9-5.002-9.559-12.072-20.828-19-29" fill="#676767" transform="matrix(1 0 0 -1 670 1011)"/><path d="m0 0c4.47-4.515 10.904-11.556 14-17 1.08-1.898 2.109-4.445 3.011-6.489-.376-1.035-2.492 1.111-3.011 1.489-7.812 5.685-19.421 22.253-30 31l-6.508 8.992c7.309-5.4 16.167-11.586 22.508-17.992" fill="#a3a3a3" transform="matrix(1 0 0 -1 985 906)"/><path d="m0 0c-3.613-2.525-11.779-12.4-7-3 11.042 13.39 19.157 30.175 20.012 47.994 3.535-15.88-3.522-32.612-13.012-44.994" fill="#565656" transform="matrix(1 0 0 -1 1210 1002)"/><path d="m0 0c.89.605 4.913 3.167 5.994 2.506-3.193-3.019-6.134-6.177-8.994-9.506-8.237-9.588-16.438-18.826-24-29-3.803-3.16-3.551-2.253-2 2 6.883 10.333 18.822 27.081 29 34" fill="#9f9f9f" transform="matrix(1 0 0 -1 659 898)"/><path d="m0 0c4 6.015 9.15 13.204 14.449 18.064 28.636 26.258 3.714-9.712-3.449-18.064 12.797 24.579-2.943 8.727-11 0" fill="#353535" transform="matrix(1 0 0 -1 752 993)"/><path d="m0 0c3.364 2.538 39.272 6.942 37.994.494-.051-.256-4.285-1.352-4.994-1.494-11.477-2.304-23.568-3.175-35-6 3.831 1.331 19.215 4.345 20.007 5.005 5.52 4.594-15.819 2.312-18.007 1.995" fill="#373737" transform="matrix(1 0 0 -1 738 900)"/><path d="m0 0c4.865-4.992 13.372-27.622 2-14-4.857 5.818-9.423 15.318-14 22-1.333 6.946 10.018-6.73 12-8" fill="#8f8f8f" transform="matrix(1 0 0 -1 898 972)"/><path d="m0 0c11.589 1.567 25.899 4.745 36.988-.482-20.464-1.305-35.163-7.583-51.988-18.518 5.035 3.866 11.735 9.462 17.338 12.162 3.843 1.851 18.957 5.106 19.658 5.854 3.957 4.221-20.503.376-21.996-.016z" fill="#333" transform="matrix(1 0 0 -1 760 912)"/><path d="m0 0c-6.341 6.406-15.199 12.592-22.508 17.992l6.508-8.992c-2.728 2.255-6.138 4.891-9 7-7.172 5.284-14.862 9.684-22 14.988 17.378-4.922 35.508-16.588 47-30.988" fill="#444" transform="matrix(1 0 0 -1 985 906)"/><path d="m0 0c2.188.317 23.527 2.599 18.007-1.995-.792-.66-16.176-3.674-20.007-5.005-2.997-1.042-5.758-2.759-9-3 11.285 7.157 2.386 6.324-5 5 4.744 2.114 10.874 4.258 16 5" fill="#525252" transform="matrix(1 0 0 -1 738 900)"/><path d="m0 0c3.703 2.522 6.473 7.333 11.582 7.92 11.921 1.369-7.819-9.607 5.418-5.92v-1c-5.484-1.629-10.297-7.426-18.486-7.014-2.47 2.091 7.688 5.452 1.486 6.014" fill="#313131" transform="matrix(1 0 0 -1 719 921)"/><path d="m0 0c6.125-5.458 12.202-20.101 15-28-2.365 4.622-6.007 9.375-7.994 14.512l-1.491-4.504-7.515 8.992c-.035.342.082.73 0 1l2.984.478c-1.522 2.88-4.032 4.999-5.984 7.522.869.982-2.079 6.308 5 0" fill="#7d7d7d" transform="matrix(1 0 0 -1 902 954)"/><path d="m0 0c-5.647-5.187-10.359-11.77-16-17 10.383 16.112.58 5.532-.994 7.006-1.332 1.249 6.652 7.27-2.006 2.994 1.973 2.524 4.607 4.916 7 7 4.367-6.219 11.78 7.676 12 0" fill="#4c4c4c" transform="matrix(1 0 0 -1 763 947)"/><path d="m0 0c20.849 17.381 9.78 4.431 1-6-6.707.385-13.989-8.484-18-13v2c3.445 4.015 9.438 8.636 12 13 2.239.04 3.088 2.406 5 4" fill="#343434" transform="matrix(1 0 0 -1 724 937)"/><path d="m0 0c-1.154 1.635-10.396 12.906-6.517 11.99 1.223-.289 16.698-14.774 17.539-17.979l.978 3.989c.896-1.394 3.087-3.605 4-5 .401-.613.598-1.387 1-2 .181-.967 1.528-3.382.988-3.999-.231-.265-2.321 1.572-2.988 1.999-1.982 1.27-13.333 14.946-12 8-.389.568-1.946 1.506-3 3" fill="#575757" transform="matrix(1 0 0 -1 883 961)"/><path d="m0 0c-13.82 10.282-7.735 3.477-1-4-5.6 3.646-11.014 8.553-16 13-1.004.895-12.762 9.787-5.678 7.823 5.351-1.483 18.746-11.985 22.678-16.823" fill="#636363" transform="matrix(1 0 0 -1 906 938)"/><path d="m0 0c2.936-9.511 8.971-18.224 15-26 .49-2.437 2.255-3.348-1-3-5.441 5.977-8.741 11.267-13 18-.601 2.647-2.147 4.986-3 9z" fill="#5f5f5f" transform="matrix(1 0 0 -1 414 977)"/><path d="m0 0c12.192 10.621 6.737 2.585 9.478 3.016 2.568.403 12.437 8.939 17.011 9.005 2.261.032 1.809-.14.495-1.504-2.621-2.719-11.386-7.212-14.984-10.517-.22 7.676-7.633-6.219-12 0" fill="#313131" transform="matrix(1 0 0 -1 751 947)"/><path d="m0 0c3.255-2.421 11.255-10.703 13-14 .338-.639 1.612-3.59.506-3.994-1.64 1.924-3.566 3.413-5.506 4.994-3.459 2.818-6.041 5.715-9 9-6.735 7.477-12.82 14.282 1 4" fill="#9b9b9b" transform="matrix(1 0 0 -1 906 938)"/><path d="m0 0c1.407-2.667 2.531-5.813 4.011-8.497l-2.011-.503c-2.962 4.278-11.414 14.136-13 18-.182.443.122 1.392 0 2 .519-.378 2.635-2.524 3.011-1.489-.902 2.044-1.931 4.591-3.011 6.489 4.336-4.286 8.176-10.646 11-16" fill="#696969" transform="matrix(1 0 0 -1 1010 939)"/><path d="m0 0c3.607.324 1.299-.868 0-3-8.005-6.02-14.926-13.117-23-19 2.86 3.329 5.801 6.487 8.994 9.506-1.081.661-5.104-1.901-5.994-2.506 5.471 6.576 12.868 10.622 20 15" fill="#818181" transform="matrix(1 0 0 -1 679 883)"/><path d="m0 0c-2.686-3.162-5.346-8.128-7.992-11.508 5.565 2.995 4.352-1.207 2.992-6.492-.54-2.1-3.529-5.01-3-8-.689-.252-1.318-.72-2-1 .607 2.517 1.75 4.865 2.003 7.478-4.442 2.303-7.855-6.704-4.003 3.522 2.389 6.342 6.856 10.898 11 16z" fill="#838383" transform="matrix(1 0 0 -1 694 944)"/><path d="m0 0c3.206-5.841 22.188-32.758 6-19-2.384 2.026-3.959 4.697-6 7 6.699-3.356 1.828 6.972 0 12" fill="#5f5f5f" transform="matrix(1 0 0 -1 967 1002)"/><path d="m0 0v-1c-4.508-1.184-11.729-6.336-15.997-7.584-2.618-.766-5.668 1.278-8.003.584v1c3.354.934 11.306 6.594 12.783 6.834 3.117.508 4.62-1.999 5.717-1.779 1.962.393 3.506 1.675 5.5 1.945" fill="#333" transform="matrix(1 0 0 -1 760 912)"/><path d="m0 0c2.49-2.667 14.023-20.733 13.899-22.619-.541-8.165-11.32 12.782-11.899 13.619l2.011.503c-1.48 2.684-2.604 5.83-4.011 8.497" fill="#2c2c2c" transform="matrix(1 0 0 -1 1010 939)"/><path d="m0 0c8.758-22.758-1.876-5.083-8 2h1c8.645-4.044 1.036 7.479 0 10-.26.633-.695 1.325-1 2 4.611-2.284 5.754-9.626 8-14" fill="#696969" transform="matrix(1 0 0 -1 927 1001)"/><path d="m0 0c7.563 4.116 16.501 5.545 24.994 4.993-3.757-4.671-15.65-5.38-21.994-7.993 2.576 1.36 6.166 2.827 8 4.988-3.36-.382-7.834-1.003-11-1.988" fill="#3a3a3a" transform="matrix(1 0 0 -1 433 894)"/><path d="m0 0c-7.079 6.308-4.131.982-5 0-2.713 3.506-16.042 15.358-15.994 16.506.15 3.585 21.447-13.125 20.994-16.506" fill="#515151" transform="matrix(1 0 0 -1 902 954)"/><path d="m0 0c2.144-.983 4.399-5.247 4-1 .578-.845 14.986-17.875 8.517-16.99-2.328.319-10.586 15.28-12.517 17.99" fill="#3d3d3d" transform="matrix(1 0 0 -1 924 964)"/><path d="m0 0-28 38c10.33-12.169 18.652-25.181 28-38" fill="#393939" transform="matrix(1 0 0 -1 911 1030)"/><path d="m0 0c-1.551-4.253-1.803-5.16 2-2-4.292-5.775-7.504-12.652-12.505-17.995.293 5.305 4.726 12.558 7.505 16.995.788 1.258 2.468 2.202 3 3" fill="#6a6a6a" transform="matrix(1 0 0 -1 630 932)"/><path d="m0 0c1.94-1.581 3.866-3.07 5.506-4.994 1.106.404-.168 3.355-.506 3.994h1c2.854-4.214 5.123-8.797 8-13 .399-4.247-1.856.017-4 1-3.152 4.423-7.656 8.164-10 13" fill="#636363" transform="matrix(1 0 0 -1 914 951)"/><path d="m0 0c-1.53-1.997-19.084-20.713-17.989-13.517.114.752 9.383 8.569 10.989 10.517-4.779-9.4 3.387.475 7 3" fill="#373737" transform="matrix(1 0 0 -1 1210 1002)"/><path d="m0 0c1.211-.602 2.861-2.49 4-3-11.793 2.439-19.929 10.051-29 17 8.249-4.923 16.375-9.711 25-14" fill="#9a9a9a" transform="matrix(1 0 0 -1 1084 1036)"/><path d="m0 0c1.197-5.446 1.099-11.843 3-18l-2-2c-.062.29-.934.695-1 1-.841 3.888-4.414 16.719 0 19" fill="#3d3d3d" transform="matrix(1 0 0 -1 411 959)"/><path d="m0 0c9.703-13.024-5.179-.198-9 4 3.255-.348 1.49.563 1 3 1.515-1.953 6.566-5.076 8-7" fill="#3f3f3f" transform="matrix(1 0 0 -1 437 1010)"/><path d="m0 0c.678.309 6.74 3.643 6.512.994-4.715-3.749-10.776-6.432-15.512-9.994 1.299 2.132 3.607 3.324 0 3 2.762 1.695 6.088 4.672 9 6" fill="#474747" transform="matrix(1 0 0 -1 688 877)"/><path d="m0 0c-6.205 5.337-8.843 13.306-13 20 6.167-4.534 9.188-13.865 13-20" fill="#252525" transform="matrix(1 0 0 -1 976 996)"/><path d="m0 0c10.046 12.754 18.372 25.182 23 41-1.574-16.093-12.222-29.895-23-41" fill="#505050" transform="matrix(1 0 0 -1 1221 1023)"/><path d="m0 0c-6.078-.276-16.33-.339-21-2.988 23.611-2.316 47.303-1.756 71-2.012 1.333-.014 2.667.013 4 0l219-1c-2.349-.148-25.398-1.962-15.278-4.778 3.373-.938 14.477 1.819 13.319-4.699-.757-4.267-11.862 1.233-14.035-.53-.972-.789 6.888-8.059-1.723-10.775-11.495-3.626-34.524.304-47.283-4.218-32.622-2.275-65.221-5.126-98-5-3.765.014-25.935-.831-26.994.007-4.726 3.739 7.55 4.665 7.988 5 .714.544-1.792 4.977-2.494 4.969-.741-.008-2.24-3.905-2.999-3.952-1.035-.065-3.101 5.094-5.141 5.804-2.58.898-3.261-3.853-5.799-2.865-2.054.799-7.753 11.164-10.075 11.092-3.174-.099-3.223-6.694-5.97-6.05-.703.164-7.183 11.643-8.095 11.967-5.672 2.014-1.599-10.716-10.651-3.706-7.893 6.112 3.805 3.65 5.23 7.722-27.849.712-56.164-.37-84 1.012-1.326.066-2.677-.088-4 0-4.565.303-14.219 1.198-18.523 1.994-1.683.311-1.676-.481-1.471 1.999z" fill="#353535" transform="matrix(1 0 0 -1 577 699)"/><path d="m0 0c27.836-1.382 56.151-.3 84-1.012-1.425-4.072-13.123-1.61-5.23-7.722 9.052-7.01 4.979 5.72 10.651 3.706.912-.324 7.392-11.803 8.095-11.967 2.747-.644 2.796 5.951 5.97 6.05 2.322.072 8.021-10.293 10.075-11.092 2.538-.988 3.219 3.763 5.799 2.865 2.04-.71 4.106-5.869 5.141-5.804.759.047 2.258 3.944 2.999 3.952.702.008 3.208-4.425 2.494-4.969-.438-.335-12.714-1.261-7.988-5 1.059-.838 23.229.007 26.994-.007-12.122-.316-110.051-4.48-111.981 1.521-1.405 4.367 7.953 2.803 3.969 7.992-3.226 4.202-8.731-7.557-15.207-1.497-3.366 3.149.982 7.163.152 9.363-.643 1.705-3.792 1.679-5.006 3.048-8.57 9.664-6.213 9.78-20.927 10.573" fill="#323232" transform="matrix(1 0 0 -1 538 704)"/><path d="m0 0c7.643.173 15.361-.234 23 0-6.538-3.194-19.524.834-25.413-.938-.48-.144-3.51-7.202-7.084-7.098-5.42.158.08 5.218 1.497 7.024-11.703 1.012-4.937-1.764-6.119-5.325-.714-2.154-35.102-7.852-40.406-8.638-39.306-5.823-79.817-8.259-119.475-11.025 12.759 4.522 35.788.592 47.283 4.218 8.611 2.716.751 9.986 1.723 10.775 2.173 1.763 13.278-3.737 14.035.53 1.158 6.518-9.946 3.761-13.319 4.699-10.12 2.816 12.929 4.63 15.278 4.778.993.063 2.005-.049 3 0 27.385 1.35 55.505.407 83 1 7.646.165 15.355-.173 23 0" fill="#2f2f2f" transform="matrix(1 0 0 -1 959 704)"/><path d="m0 0c-64.646-.222-129.353-.1-194 0-1 .002-2-.002-3 0-25.01 13.516-53.454 16.293-80 28-21.411 9.443-27.896 10.607 0 8 11.658-1.089 21.042-2.223 33-2 7.784-1.984 16.981-.522 25 0 7.355.479 12.721 1.002 20 2 28.319 3.882 47.514 10.608 72 25 21.07 12.384 42.711 29.468 50.696 53.804 10.009 30.504 2.246 69.126-31.732 79.66-25.948 8.044-122.993 6.619-153.497 4.569-7.623-.512-17.339-2.184-24.467-5.033-7.644-1.447-17.487-4.594-24-9-11.095-4.304-47.311-22.629-53-32-12.958-9.044-24.817-21.254-34-34-.973-1.351-2.093-2.609-3-4-5.043-5.799-15.243-17.81-17-25-6.431-6.884-9.156-16.595-13-25-.906-1.98-2.148-3.962-3-6-7.78-18.597-14.818-37.483-16-58-3.681-.048-24.581-2.438-26.005-1.005-2.222 2.234 4.588 31.743 5.85 36.66 24.822 96.682 112.798 180.222 214.62 186.38 133.586 8.078 242.553-6.224 307.055-137.015 6.24-12.655 29.288-73.815 25.338-84.444-1.362-3.667-68.503-1.544-77.858-1.576" fill="#1f1f1f" transform="matrix(1 0 0 -1 1015 676)"/><path d="m0 0c7.093 6.823 13.484-9.738 14.492-9.975.266-.063 2.57 2.33 3.859 1.819 9-3.563 16.123-11.275 25.684-15.309 4.891-2.064 54.178-14.528 57.637-14.459 4.589.092 5.454 2.741 8.68 2.875 4.827.199 8.659-4.963 14.102-5.001 11.326-.077 29.502 6.914 39.119 8.051 1.25.147 10.366-3.195 11.42-1.996 3.982 4.532-16.792 7.734-16.993 11.995 26.546-11.707 54.99-14.484 80-28-62.95.099-126.012 1.042-189 1-.341 12.438-14.046 5-17.069 7.417-1.688 1.35-.529 5.124-.949 5.566-.877.925-21.034 6.432-24.039 8.485 2.44 10.525-14.295-.251-14.936.538-2.024 2.492 6.665 23.247 7.993 26.994" fill="#828282" transform="matrix(1 0 0 -1 580 626)"/><path d="m0 0c-1.328-3.747-10.017-24.502-7.993-26.994.641-.789 17.376 9.987 14.936-.538 3.005-2.053 23.162-7.56 24.039-8.485.42-.442-.739-4.216.949-5.566 3.023-2.417 16.728 5.021 17.069-7.417-20.976-.014-42.029.272-63 0 1.182 20.517 8.22 39.403 16 58-.624-2.639-1.145-6.589-2-9" fill="#777" transform="matrix(1 0 0 -1 580 626)"/><path d="m0 0c53.672-.019 107.339-.348 160.994-1.007l-43.994-3.993c-7.645-.173-15.354.165-23 0l-83-1c-.995-.049-2.007.063-3 0l-219 1c79.264-.761 168.095-4.205 246.476 1.024 2.523.169 13.118.384 12.518 2.969z" fill="#4f4f4f" transform="matrix(1 0 0 -1 842 699)"/><path d="m0 0c-27.891-.012-56.04-2.059-83.994-1.013 5.569-1.015 11.786-1.69 17.459-2.022 40.212-2.354 101.906-4.718 141.16-1.048 2.52.236 7.138 3.42 10.369 3.07-26.288-1.034-52.771.986-78.994 1.013 36.65-.01 73.35.013 110 0l47.994-1.007c.6-2.585-9.995-2.8-12.518-2.969-78.381-5.229-167.212-1.785-246.476-1.024-1.333.013-2.667-.014-4 0-1.975 5.703-17.801-1.682-18.994 3.993 8.668-.847 17.434.72 25.994 1.007 30.521 1.023 61.411-.769 92 0" fill="#838383" transform="matrix(1 0 0 -1 726 699)"/><path d="m0 0c26.223-.027 52.706-2.047 78.994-1.013-3.231.35-7.849-2.834-10.369-3.07-39.254-3.67-100.948-1.306-141.16 1.048-5.673.332-11.89 1.007-17.459 2.022 27.954-1.046 56.103 1.001 83.994 1.013 1.998.001 4.002.002 6 0" fill="#a0a0a0" transform="matrix(1 0 0 -1 732 699)"/><path d="m0 0c-8.56-.287-17.326-1.854-25.994-1.007 1.193-5.675 17.019 1.71 18.994-3.993-23.697.256-47.389-.304-71 2.012 4.67 2.649 14.922 2.712 21 2.988 18.906.86 38.072-.639 57 0" fill="#767676" transform="matrix(1 0 0 -1 634 699)"/><path d="m0 0c10.87-12.329 21.807-25.008 35-35 20.279-19.407 49.778-31.166 77-37 6.041-1.295 11.962-1.919 17.994-2.987-6.956-.08-14.094.251-20.994.987-69.954 7.461-91.713 45.701-130 95l-.993 6.513c7.002-9.512 14.177-18.648 21.993-27.513" fill="#1c1c1c" transform="matrix(1 0 0 -1 1005 985)"/><path d="m0 0c-1.36-1.847-2.684-4.067-4-6-4.055-5.958-14.966-17.962-17.19-23.31-.606-1.458-3.342-15.108-2.798-15.69 1.659-1.771 25.879 31.365 27.988 34 .945 1.181 2.233 2.063 3 3h1c-2.778-3.753-5.599-7.969-8-12-25.049-27.018-36.77-52.065-71-72-2.246-1.308-43.045-22.73-41.994-13.506.193 1.696 27.418 12.703 30.988 13.518l-1.994.999 6.98 1.48c8.111 9.408 17.54 17.396 26.02 26.509 18.484 19.864 33.063 42.729 51 63" fill="#aeaeae" transform="matrix(1 0 0 -1 650 939)"/><path d="m0 0c14.084 10.351 31.248 18.887 49 19.987-12.77-6.567-23.628-12.092-35-20.987-15.566-12.175-23.05-24.402-35-39-.767-.937-2.055-1.819-3-3-.961 4.267-7.544-4.664-8.993-2.994-.709.816 1.429 6.278.993 7.994 1.316 1.933 2.64 4.153 4 6 10.08 13.693 13.268 21.173 28 32" fill="#d8d8d8" transform="matrix(1 0 0 -1 678 907)"/><path d="m0 0c8.715-6.356-10.988-10.441-11.683-9.677-1.902 2.09 6.284 13.615 11.683 9.677" fill="#1e1e1e" transform="matrix(1 0 0 -1 700.6899 884.3175)"/><path d="m0 0c.413.446 9.949 11.261 9 6-4.22-5.517-6.394-11.009-10-16-8.719-12.069-17.891-25.089-28-36-3.363-3.63-9.394-9.812-13-13-5.447-4.815-10.195-7.884-16-12-30.154-21.379-61.509-31.899-98.994-29.987l21.994 2.987c21.804 2.536 46.241 13.041 64 26 34.23 19.935 45.951 44.982 71 72" fill="#1e1e1e" transform="matrix(1 0 0 -1 650 959)"/><path d="m0 0c2.82-4.153 17.568-22.099 17.992-23.518.679-2.275-3.038-.542-1.985-3.476 7.271 2.254 2.253-1.117 3.506-3.058 2.273-3.523 8.932-8.097 12.527-12.413 1.474-1.77.539-4.598 1.124-5.365.879-1.155 9.185-1.2 5.836-6.17-.528.409-2.205.527-4 2-7.205 5.91-29.866 27.643-33.521 35.011-.42.846 4.888 7.278-3.479 2.989-9.163 13.239-21.29 24.64-29 39 2.807-3.106 16.974-23.498 20.99-16.48 1.302 2.277-14.528 24.406-15.99 28.48 9.752-11.889 17.414-24.355 26-37" fill="#acacac" transform="matrix(1 0 0 -1 1006 968)"/><path d="m0 0h-1c-13.193 9.992-24.13 22.671-35 35-.263.982-.411 2.149-1 3 8.367 4.289 3.059-2.143 3.479-2.989 3.655-7.368 26.316-29.101 33.521-35.011" fill="#a2a2a2" transform="matrix(1 0 0 -1 1041 1020)"/><path d="m0 0c-3.699-6.262-9.046-17.817-11.005-25.006-4.194 1.975 2.613 13.717 4.005 18.006.512 1.577 1.704 3.773 2 5 .682.28 1.311.748 2 1 .977.357 2.094.401 3 1" fill="#aaa" transform="matrix(1 0 0 -1 689 969)"/><path d="m0 0c.844-.518 1.87-.575 4-2-.163-2.627 27.353-25.189 23.994-27.994-1.423-1.188-5.804 2.767-5.488-4-6.395 8.695-13.542 14.938-21.506 21.994-2.46 2.18-5.478 5.04-8 7-12.264 9.529-22.567 15.955-37 21.988 16.174-1.834 30.311-8.584 44-16.988" fill="#dcdcdc" transform="matrix(1 0 0 -1 950 903)"/><path d="m0 0c1.462-4.074 17.292-26.203 15.99-28.48-4.016-7.018-18.183 13.374-20.99 16.48-8.191 9.063-16.225 18.565-24 28 7.964-7.056 15.111-13.299 21.506-21.994-.316 6.767 4.065 2.812 5.488 4 3.359 2.805-24.157 25.367-23.994 27.994 11.792-7.886 17.234-15.314 26-26" fill="#cecece" transform="matrix(1 0 0 -1 980 931)"/><path d="m0 0c-.24-2.694 7.885-14.089 6.994-14.994-1.848-1.876-7.649 7.933-8.5 7.988-1.596.102 7.685-17.179 8.506-18.994l-2 1c-2.106 6.374-21.286 36.807-5.005 20.008l-1.995 6.992c.539-.741 1.477-1.261 2-2" fill="#727272" transform="matrix(1 0 0 -1 953 961)"/><path d="m0 0c3.606 3.188 9.637 9.37 13 13-2.355-5.398-7.747-10.421-13-13" fill="#4a4a4a" transform="matrix(1 0 0 -1 608 1018)"/><path d="m0 0c-10.333-8.344-25.893-27.047-34-38h-1c11.95 14.598 19.434 26.825 35 39z" fill="#c6c6c6" transform="matrix(1 0 0 -1 692 909)"/><path d="m0 0c2.822-1.873 7.066-4.975 4 0 5.348-5.902 11.845-13.566 18.497-18.003 2.007-1.339 2.776-1.948 2.503 1.003.555-.733 1.462-1.261 2-2l1.995-6.992c-16.281 16.799 2.899-13.634 5.005-20.008 4.812-14.566-5.802-3.356-10 2-4.096 5.226-7.54 14.042-11 20 8.803-7.412 3.974 4.68 1.406 8.906-1.171 1.926-13.184 13.634-15.406 15.094z" fill="#a8a8a8" transform="matrix(1 0 0 -1 924 940)"/><path d="m0 0c.677-.858.658-2.548 1-3 .273-2.951-.496-2.342-2.503-1.003-6.652 4.437-13.149 12.101-18.497 18.003-2.627 2.899-5.525 6.003-8 9-9.908 12.001 8.472-1.696 12.461-5.039 6.805-5.702 10.27-11.285 15.539-17.961" fill="#c7c7c7" transform="matrix(1 0 0 -1 948 954)"/><path d="m0 0c2.222-1.46 14.235-13.168 15.406-15.094 2.568-4.226 7.397-16.318-1.406-8.906-6.615 5.569-14.436 18.729-21 26l.494 1.994c1.493-2.663 4.589-2.734 6.506-3.994" fill="#c1c1c1" transform="matrix(1 0 0 -1 923 940)"/><path d="m0 0c-11.408 12.092-.138 5.748 6.671 2.145 1.989-1.053 2.485-2.612 2.329.855 2.475-2.997 5.373-6.101 8-9 3.066-4.975-1.178-1.873-4 0-.67.445-13.599 13.582-13 6" fill="#747474" transform="matrix(1 0 0 -1 911 934)"/><path d="m0 0h-1c-1.917 1.26-5.013 1.331-6.506 3.994l-.494-1.994c-1.168 1.294-3.781 2.708-5 4-.599 7.582 12.33-5.555 13-6" fill="#a4a4a4" transform="matrix(1 0 0 -1 924 940)"/><path d="m0 0c8.234-5.482 16.391-11.574 13.988-22-2.843 2.424-5.392 5.315-7.988 8-2.778 2.873-5.492 5.887-8 9 1.578-.841 4.837-3.736 6.002-1.476-.558 2.57-2.434 4.538-4.002 6.476" fill="#8d8d8d" transform="matrix(1 0 0 -1 948 928)"/><path d="m0 0c3.809 3.695 7.05 7.967 11.506 10.994-6.589-12.231 6.052 1.18 8.488-1.001 1.125-1.007-2.195-3.235-1.993-3.979.538-1.982 10.673 4.779 4.999-5.014-1.912-1.594-2.761-3.96-5-4 4.171 7.105.523 3.414-3 1-3.046 2.34-5.172-5.185-5 0 12.845 17.907.779 3.688-9 2z" fill="#787878" transform="matrix(1 0 0 -1 701 938)"/><path d="m0 0c2.506 10.826 5.362-5.899 7.186-10.315.792-1.919 1.999-3.011-1.186-2.685-2.59 4.817-4.193 7.661-6 13" fill="#1e1e1e" transform="matrix(1 0 0 -1 400 987)"/><path d="m0 0c.066-.305.938-.71 1-1 .853-4.014 2.399-6.353 3-9 .335-1.478.913-9.395-1.995-5.992-.511.597 1.411 3.701 1.085 4.334-.318.619-9.428 8.943-3.09 11.658" fill="#1e1e1e" transform="matrix(1 0 0 -1 411 978)"/><path d="m0 0c9.779 1.688 21.845 15.907 9-2-7.569-10.552-15.274-17.614-22-29-.906-.599-2.023-.643-3-1-.529 2.99 2.46 5.9 3 8z" fill="#c8c8c8" transform="matrix(1 0 0 -1 702 938)"/><path d="m0 0c3.523 2.414 7.171 6.105 3-1-2.562-4.364-8.555-8.985-12-13-5.038-5.871-10.645-11.074-14.505-17.994 2.683 11.087 14.244 25.649 23.505 31.994" fill="#ababab" transform="matrix(1 0 0 -1 716 940)"/><path d="m0 0c-.879-1.198-5.531-6.409-5.865-2.654-.307 3.443 12.611 29.685 15.379 30.646 1.305.453 3.625-4.494 3.486-5.992-4.462-7.266-8.453-14.814-13-22" fill="#a4a4a4" transform="matrix(1 0 0 -1 730 991)"/><path d="m0 0c.082-.27-.035-.658 0-1 .026-.254-1.962-3.468-1-5-.913 1.395-3.104 3.606-4 5-11.083 17.248 4.681 2.044 5 1" fill="#8b8b8b" transform="matrix(1 0 0 -1 900 962)"/><path d="m0 0c1.036-2.521 8.645-14.044 0-10l-4 7c.695-.434 2.723-2.259 2.987-2 .201.197-.083 4.009 1.013 5" fill="#979797" transform="matrix(1 0 0 -1 920 989)"/><path d="m0 0-13-24c1.36 5.285 2.573 9.487-2.992 6.492 2.646 3.38 5.306 8.346 7.992 11.508 2.844 3.349 4.836 3.901 7 6z" fill="#aaa" transform="matrix(1 0 0 -1 702 938)"/><path d="m0 0c-27.495-.593-55.615.35-83-1z" fill="#353535" transform="matrix(1 0 0 -1 936 704)"/><path d="m0 0c10.065-.133 19.965-.101 30-1-5.62-7.177 2.15-11.588 2.491-17.119.985-15.963-10.369-38.159-17.074-51.887-1.166-2.388 1.167-4.789.159-7-.265-.582-7.324-5.292-9.454-8.617-1.665-2.599-.875-6.548-2.702-9.297-2.591-3.9-10.388-8.025-12.902-11.098-1.996-2.438-1.492-6.723-3.955-10.045-6.785-9.153-27.521-19.059-35.643-28.357l-29.875-13.125c-7.022-7.662 10.206.146 10.949-5.448-4.652-.076-9.343.08-13.994-.007-11.958-.223-21.342.911-33 2-.908 2.644-3.088 1.751-5 2 13.064 8.649 43.448 7.949 54.382 17.118 3.014 2.528 2.354 6.279 5.092 8.908 7.016 6.739 12.153 4.313 15.862 6.055 9.523 4.475 15.247 15.647 21.179 22.904 1.213 1.484 4.275.714 5.559 2.441 4.95 6.659 14.747 23.984 19.111 31.889 1.761 3.191 2.301 11.062 3.304 12.696 1.729 2.815 8.104 2.772 9.115 10.965.56 4.534-1.957 5.907-1.45 9.265.524 3.47 8.326 7.642 8.35 19.283.002.855-1.905 15.897-2.498 16.483-.284.282-6.513-.126-8.006-.007-1.646.131-3.345-.067-5 0-2.324.094-4.673-.045-7 0-.333.006-.667-.005-1 0v1c1-.008 2 .013 3 0" fill="#a1a1a1" transform="matrix(1 0 0 -1 853 479)"/><path d="m0 0c5.58-6.787 4.633 3.655 5 4.008 3.066 2.947 16.372-14.575 19.998-16.51 2.198-1.175 7.067-.29 10.23-1.77 2.579-1.207 8.244-6.956 10.517-7.566 2.433-.654 5.127 1.527 8.476.61 9.899-2.711 7.865-8.751 17.529-11.527 4.705-1.352 39.46-7.411 42.796-7.134 2.039.169 4.906 3.21 8.195 3.639 16.874 2.2 28.6-2.214 5.259 11.25 1.356.667 2.089 1.542 4 1 5.425-.985 10.442-2.276 16-3 1.912-.249 4.092.644 5-2-27.896 2.607-21.411 1.443 0-8 .201-4.261 20.975-7.463 16.993-11.995-1.054-1.199-10.17 2.143-11.42 1.996-9.617-1.137-27.793-8.128-39.119-8.051-5.443.038-9.275 5.2-14.102 5.001-3.226-.134-4.091-2.783-8.68-2.875-3.459-.069-52.746 12.395-57.637 14.459-9.561 4.034-16.684 11.746-25.684 15.309-1.289.511-3.593-1.882-3.859-1.819-1.008.237-7.399 16.798-14.492 9.975.855 2.411 1.376 6.361 2 9 .852 2.038 2.094 4.02 3 6" fill="#8f8f8f" transform="matrix(1 0 0 -1 585 611)"/><path d="m0 0c1.012-8.184-.995-17.145-1.019-24.453-.007-1.927 3.019-2.585 2.997-6.902-.041-8.069-9.023-22.727-13.436-29.687-1.039-1.638-.041-4.607-1.008-5.992-.35-.501-7.184-3.611-10.055-6.945-12.794-14.853-14.084-18.264-29.424-32.576-2.093-1.954-9.23-13.764-10.469-14.531-.967-.599-17.972-9.312-19.86-10.14-8.777-3.85-49.877-11.845-58.241-10.872-3.045.354-6.756 4.115-11.248 4.864-11.336 1.891-31.593 2.966-42.477 7.494-3.401 1.414-6.588 7.24-9.811 9.189-4.288 2.594-17.818 7.929-21.077 11.987-1.467 1.828.261 3.972-.935 5.911-2.912 4.722-7.514 2.846-8.751 3.83-1.036.825-1.324 12.927-5.685 12.802-1.577-.046-3.338-8.538-5.501-.979 1.034 1.77 2.098 4.617 3 6 .907 1.391 2.027 2.649 3 4 8.598 2.017 2.446-1.855 2.987-4.387 1.685-7.879 11.121-13.449 16.824-18.771.708-.66-.447-2.887.803-3.963 1.528-1.316 6.054-1.422 7.908-2.857 3.714-2.874 3.442-6.516 8.084-8.916 5.819-3.008 16.753-1.349 20.729-4.014 2.27-1.521.057-5.521 2.204-6.012 3.111-.713 7.755 4.936 6.455-4.087 13.47.084 27.063-.134 40.507-.992 17.279-1.101 10.584-4.957 29.443.555 3.323.972 8.068-.316 10.384.616 3.081 1.24 1.648 6.022 4.712 8.288 4.367 3.232 9.314.086 12.888 1.027 6.283 1.654 33.95 29.641 39.037 36.049 16.474 20.753 23.429 36.924 28.836 62.229 1.643 7.689-2.044 15.424 1.199 22.235 2.327-.045 4.676.094 7 0" fill="#b5b5b5" transform="matrix(1 0 0 -1 858 480)"/><path d="m0 0c2.816 4.979-5.744-.866-7.986.015-.312.122.573 2.868-.523 3.011-2.65.346-6.447-1.83-9.485-1.019 2.824 3.755 9.424 7.639 13.994 7.993-20.689-14.482 8.799.471 15 4 1.714.976 3.345 1.925 5 3 5.815 3.776 13.16 6.95 16 14 8.479 9.26 14.896 21.281 14.506 33.994-7.989-18.143-19.454-31.551-34.506-43.994-3.393-2.805-8.578-5.543-12-8-1.073 7.939 13.748 13.433 13.976 15.5.415 3.775-5.483-1.964-6.976-.488-.241.239 2.68 3.994 2.941 5.547 1.018 6.041 2.487 20.265 7.153 24.847 2.647 2.601 5.496.527 7.221 3.863.809 1.566.072 15.468.937 18.979 1.381 5.603 6.425 9.494 7.663 15.337 1.317 6.217-3.376 24.888 7.083 20.425-1.818 4.275-6.179 7.682-9.998 9.99-2.268 1.37-11.652 5.436-14 6-3.448.828-9.331.519-13 1-2.704.354-5.258.754-8 1-10.035.899-19.935.867-30 1-14.16 1.838-28.747.997-43 1-19.62.004-39.443.83-59-1-.82-.068-1.631-.091-2-1-6.308-.374-10.859-1.008-17-2-.942-.152-2.075.175-3 0 7.128 2.849 16.844 4.521 24.467 5.033 30.504 2.05 127.549 3.475 153.497-4.569 33.978-10.534 41.741-49.156 31.732-79.66-7.985-24.336-29.626-41.42-50.696-53.804" fill="#7c7c7c" transform="matrix(1 0 0 -1 888 615)"/><path d="m0 0-12.001-3.013c2.489-3.957 3.402-16.164 3.069-21.483-1.058-16.904-7.924-18.274-11.155-29.001-1.109-3.682-.212-12.38-2.653-17.178-1.71-3.36-11.26-11.054-11.765-12.32-1.409-3.54.245-8.116-.945-12.055-.273-.903-9.383-15.304-10.061-15.96-2.112-2.041-4.877.884-7.225-1.254l-12.339-21.161c-10.174-.321-16.407-11.32-21.004-14-4.737-2.762-12.016-1.041-15.921-4.575-7.279-.998-12.645-1.521-20-2 3.143 3.829-5.928 1.306-6.994 2.013-.128 1.106 4.27 1.896 4.994 1.987 4.609.577 17.108-3.22 19-1.988.897.585-4.515 2.651-2.087 5.56.69.826 14.776 9.138 17.776 11.742 2.071 1.797 5.123 8.544 7.789 10.708 4.47 3.626 14.845 6.212 18.574 13.425 1.783 3.449.962 8.15 3.066 11.935 3.992 7.181 20.988 21.761 23.963 30.037 1.792 4.984 1.071 15.894 3.581 20.339 1.9 3.363 7.354 2.168 9.092 10.988 1.832 9.303-3.465 22.913-1.103 28.025 1.027 2.222 3.932 1.747 4.2 2.369 1.96 4.55-3.089 12.392 6.149 12.86 2.348-.564 11.732-4.63 14-6" fill="#8c8c8c" transform="matrix(1 0 0 -1 918 488)"/><path d="m0 0c3.905 3.534 11.184 1.813 15.921 4.575 4.597 2.68 10.83 13.679 21.004 14l12.339 21.161c2.348 2.138 5.113-.787 7.225 1.254.678.656 9.788 15.057 10.061 15.96 1.19 3.939-.464 8.515.945 12.055.505 1.266 10.055 8.96 11.765 12.32 2.441 4.798 1.544 13.496 2.653 17.178 3.231 10.727 10.097 12.097 11.155 29.001.333 5.319-.58 17.526-3.069 21.483l12.001 3.013c3.819-2.308 8.18-5.715 9.998-9.99-10.459 4.463-5.766-14.208-7.083-20.425-1.238-5.843-6.282-9.734-7.663-15.337-.865-3.511-.128-17.413-.937-18.979-1.725-3.336-4.574-1.262-7.221-3.863-4.666-4.582-6.135-18.806-7.153-24.847-.261-1.553-3.182-5.308-2.941-5.547 1.493-1.476 7.391 4.263 6.976.488-.228-2.067-15.049-7.561-13.976-15.5-1.348-.968-2.619-2.033-4-3-4.57-.354-11.17-4.238-13.994-7.993 3.038-.811 6.835 1.365 9.485 1.019 1.096-.143.211-2.889.523-3.011 2.242-.881 10.802 4.964 7.986-.015-24.486-14.392-43.681-21.118-72-25" fill="#848484" transform="matrix(1 0 0 -1 816 640)"/><path d="m0 0c.333-.005.667.006 1 0-3.243-6.811.444-14.546-1.199-22.235-5.407-25.305-12.362-41.476-28.836-62.229-5.087-6.408-32.754-34.395-39.037-36.049-3.574-.941-8.521 2.205-12.888-1.027-3.064-2.266-1.631-7.048-4.712-8.288-2.316-.932-7.061.356-10.384-.616-18.859-5.512-12.164-1.656-29.443-.555-13.444.858-27.037 1.076-40.507.992 1.3 9.023-3.344 3.374-6.455 4.087-2.147.491.066 4.491-2.204 6.012-3.976 2.665-14.91 1.006-20.729 4.014-4.642 2.4-4.37 6.042-8.084 8.916-1.854 1.435-6.38 1.541-7.908 2.857-1.25 1.076-.095 3.303-.803 3.963-5.703 5.322-15.139 10.892-16.824 18.771-.541 2.532 5.611 6.404-2.987 4.387 9.183 12.746 21.042 24.956 34 34-.367-.604-.761-1.338-1-2-2.904-3.598-6.873-6.189-10-9-5.693-5.117-11.534-10.189-15.992-16.508 6.423 1.3 1.032-2.422 1.452-4.59 2.046-10.553 10.03-8.742 10.54-18.902.957-4.528 5.769-7.573 10-8 2.798-.282 10.607.745 13 2l6.258-15.242 47.192-11.618c6.709 2.83 11.587-1.328 17.883-1.024 11.202.541 5.792 4.819 6.666 5.857 1.533 1.822 33.523 3.53 36.96 5.569 3.679 2.182 3.484 10.231 13.788 14.291 2.246.886 5.1-1.23 6.544-.649 2.764 1.111 34.175 35.627 34.977 38.093 1.43 4.405-1.49 7.303.467 11.491.42.898 9.338 9.211 10.098 11.899 3.294 11.649-.175 29.934 4.167 41.333 1.666-.028 3.334.028 5 0" fill="#b8b8b8" transform="matrix(1 0 0 -1 850 480)"/><path d="m0 0c-.783-3.204 1.311-6.847.991-6.997-.734-.345-2.954 1.527-4.019.592-.448-.392-3.337-6.234-2.966-6.588.568-.543 8.842 3.931 14.067-2.434 2.02-2.461 1.456-8.131 2.859-9.141 1.578-1.135 7.396.25 11.008-1.992 3.001-1.862 2.862-6.228 5.679-8.321 15.816-11.752 69.345-23.994 87.381-15.119 23.341-13.464 11.615-9.05-5.259-11.25-3.289-.429-6.156-3.47-8.195-3.639-3.336-.277-38.091 5.782-42.796 7.134-9.664 2.776-7.63 8.816-17.529 11.527-3.349.917-6.043-1.264-8.476-.61-2.273.61-7.938 6.359-10.517 7.566-3.163 1.48-8.032.595-10.23 1.77-3.626 1.935-16.932 19.457-19.998 16.51-.367-.353.58-10.795-5-4.008 3.844 8.405 6.569 18.116 13 25" fill="#9a9a9a" transform="matrix(1 0 0 -1 598 586)"/><path d="m0 0c-1.776-7.105-1.668-15.958-2.105-23.504-.167-2.877 1.93-4.731 1.696-7.514-.377-4.493-4.789-8.357-5.874-12.199-1.7-6.023-2.01-16.448-5.67-21.053-4.626-5.82-11.969-2.934-8.113-18.078-6.239-4.678-8.457-12.164-12.933-18.153-7.127-9.536-26.597-31.095-36.649-37.441-2.135-1.348-6.164 1.182-9.392-2.609-1.543-1.813.67-3.403-.924-4.899-4.445-4.166-12.444-6.941-17.036-11.55-.724-.091-5.122-.881-4.994-1.987 1.066-.707 10.137 1.816 6.994-2.013-8.019-.522-17.216-1.984-25 0 4.651.087 9.342-.069 13.994.007-.743 5.594-17.971-2.214-10.949 5.448l29.875 13.125c8.122 9.298 28.858 19.204 35.643 28.357 2.463 3.322 1.959 7.607 3.955 10.045 2.514 3.073 10.311 7.198 12.902 11.098 1.827 2.749 1.037 6.698 2.702 9.297 2.13 3.325 9.189 8.035 9.454 8.617 1.008 2.211-1.325 4.612-.159 7 6.705 13.728 18.059 35.924 17.074 51.887-.341 5.531-8.111 9.942-2.491 17.119 2.742-.246 5.296-.646 8-1" fill="#979797" transform="matrix(1 0 0 -1 891 481)"/><path d="m0 0c-1.025-1.755-1.906-2.916-3-5-.985-1.876-5.27-3.09-1.023-6.503-11.427-1.254-1.386-2.817-.268-4.802 1.476-2.619-.175-6.212.522-7.887 3.665-8.796 10.553-6.345 12.706-9.371 2.005-2.817.054-8.482 2-10 1.717-1.34 8.418.245 11.346-.654 1.729-.53 3.477-3.416 6.46-4.627 1.787-.725 5.253 1.429 6.223.832.628-.387.866-7.967 3.69-8.867 1.494-.477 4.485 1.475 6.741.87 20.97-5.624 38.038-8.076 59.603-11.991-1.911.542-2.644-.333-4-1-18.036-8.875-71.565 3.367-87.381 15.119-2.817 2.093-2.678 6.459-5.679 8.321-3.612 2.242-9.43.857-11.008 1.992-1.403 1.01-.839 6.68-2.859 9.141-5.225 6.365-13.499 1.891-14.067 2.434-.371.354 2.518 6.196 2.966 6.588 1.065.935 3.285-.937 4.019-.592.32.15-1.774 3.793-.991 6.997 1.757 7.19 11.957 19.201 17 25-.902-1.383-1.966-4.23-3-6" fill="#9d9d9d" transform="matrix(1 0 0 -1 612 567)"/><path d="m0 0c-7.189-6.433-36.439-16.737-40.996-23.506-.119-.178 2.17-2.877 2.48-3.485 1.565 3.554 9.916 10.51 13.166 11.832 1.29.525 3.557-1.876 3.863-1.822 1.022.182 1.356 2.901 1.508 2.97 4.175 1.913-.13-4.151-.028-4.46.481-1.46 13.369-1.314.418-8.436-3.709-2.04-9.686.746-7.239-4.979.207-.483 2.569.441 2.848-.63 2.804-10.765-12.763-9.358-18.02-13.484 1.554 2.045-1.567 15.44-4.994 10.994-2.419-3.139 4.63-10.063-7.625-5.231-1.572.62-5.185-2.525-2.381 5.237.239.662.633 1.396 1 2 5.689 9.371 41.905 27.696 53 32 .956.371 2.012.641 3 1" fill="#d4d4d4" transform="matrix(1 0 0 -1 708 490)"/><path d="m0 0c.925.175 2.058-.152 3 0-7.885-2.999-16.063-5.111-24-8-.988-.359-2.044-.629-3-1 6.513 4.406 16.356 7.553 24 9" fill="#a1a1a1" transform="matrix(1 0 0 -1 729 482)"/><path d="m0 0c.436-1.716-1.702-7.178-.993-7.994 1.449-1.67 8.032 7.261 8.993 2.994-2.109-2.635-26.329-35.771-27.988-34-.544.582 2.192 14.232 2.798 15.69 2.224 5.348 13.135 17.352 17.19 23.31" fill="#c6c6c6" transform="matrix(1 0 0 -1 646 945)"/><path d="m0 0c1.493-.119 7.722.289 8.006.007.593-.586 2.5-15.628 2.498-16.483-.024-11.641-7.826-15.813-8.35-19.283-.507-3.358 2.01-4.731 1.45-9.265-1.011-8.193-7.386-8.15-9.115-10.965-1.003-1.634-1.543-9.505-3.304-12.696-4.364-7.905-14.161-25.23-19.111-31.889-1.284-1.727-4.346-.957-5.559-2.441-5.932-7.257-11.656-18.429-21.179-22.904-3.709-1.742-8.846.684-15.862-6.055-2.738-2.629-2.078-6.38-5.092-8.908-10.934-9.169-41.318-8.469-54.382-17.118-5.558.724-10.575 2.015-16 3-21.565 3.915-38.633 6.367-59.603 11.991-2.256.605-5.247-1.347-6.741-.87-2.824.9-3.062 8.48-3.69 8.867-.97.597-4.436-1.557-6.223-.832-2.983 1.211-4.731 4.097-6.46 4.627-2.928.899-9.629-.686-11.346.654-1.946 1.518.005 7.183-2 10-2.153 3.026-9.041.575-12.706 9.371-.697 1.675.954 5.268-.522 7.887-1.118 1.985-11.159 3.548.268 4.802-4.247 3.413.038 4.627 1.023 6.503 6.529-2.551 7.429-13.961 9.223-15.776 1.165-1.179 4.744-.758 6.849-2.655 4.045-3.644 15.141-14.73 19.663-17.334 3.967-2.284 12.555-2.603 16.475-4.254 1.738-.731 1.861-4.42 4.038-5.321 2.187-.905 13.86-1.026 17.78-2.128 5.174-1.454 12.883-6.336 18.515-7.484 10.432-2.126 26.242 3.163 33.985 2.053 4.147-.595 2.995-3.387 5.976-4.121 9.296-2.29 26.414 7.637 34.881 12.132 2.134 1.132 1.811 4.069 3.372 4.894 9.989 5.276 23.673 10.937 34.249 15.488-.08 4.784 11.242 20.831 14.555 21.498 1.069.215 4.953-4.435 7.006.029.962 2.092-1.978 3.149-.855 6.676.852 2.674 12.397 14.101 15.123 18.969 8.384 14.972 15.127 36.211 15.184 53.889.014 4.287-1.256 11.048-2.019 15.445" fill="#a9a9a9" transform="matrix(1 0 0 -1 863 480)"/><path d="m0 0c.763-4.397 2.033-11.158 2.019-15.445-.057-17.678-6.8-38.917-15.184-53.889-2.726-4.868-14.271-16.295-15.123-18.969-1.123-3.527 1.817-4.584.855-6.676-2.053-4.464-5.937.186-7.006-.029-3.313-.667-14.635-16.714-14.555-21.498-10.576-4.551-24.26-10.212-34.249-15.488-1.561-.825-1.238-3.762-3.372-4.894-8.467-4.495-25.585-14.422-34.881-12.132-2.981.734-1.829 3.526-5.976 4.121-7.743 1.11-23.553-4.179-33.985-2.053-5.632 1.148-13.341 6.03-18.515 7.484-3.92 1.102-15.593 1.223-17.78 2.128-2.177.901-2.3 4.59-4.038 5.321-3.92 1.651-12.508 1.97-16.475 4.254-4.522 2.604-15.618 13.69-19.663 17.334-2.105 1.897-5.684 1.476-6.849 2.655-1.794 1.815-2.694 13.225-9.223 15.776 1.094 2.084 1.975 3.245 3 5 2.163-7.559 3.924.933 5.501.979 4.361.125 4.649-11.977 5.685-12.802 1.237-.984 5.839.892 8.751-3.83 1.196-1.939-.532-4.083.935-5.911 3.259-4.058 16.789-9.393 21.077-11.987 3.223-1.949 6.41-7.775 9.811-9.189 10.884-4.528 31.141-5.603 42.477-7.494 4.492-.749 8.203-4.51 11.248-4.864 8.364-.973 49.464 7.022 58.241 10.872 1.888.828 18.893 9.541 19.86 10.14 1.239.767 8.376 12.577 10.469 14.531 15.34 14.312 16.63 17.723 29.424 32.576 2.871 3.334 9.705 6.444 10.055 6.945.967 1.385-.031 4.354 1.008 5.992 4.413 6.96 13.395 21.618 13.436 29.687.022 4.317-3.004 4.975-2.997 6.902.024 7.308 2.031 16.269 1.019 24.453 1.655-.067 3.354.131 5 0" fill="#acacac" transform="matrix(1 0 0 -1 863 480)"/><path d="m0 0c-1 .013-2-.008-3 0-10.218.08-20.896.782-31-1-2.995.02-6.005-.014-9 0v2c14.253-.003 28.84.838 43-1" fill="#8c8c8c" transform="matrix(1 0 0 -1 853 479)"/><path d="m0 0v-1c-1.666.028-3.334-.028-5 0-3.657.061-7.342-.035-11 0-3.991.038-8.009-.031-12 0-1 .008-2-.007-3 0 10.104 1.782 20.782 1.08 31 1" fill="#b5b5b5" transform="matrix(1 0 0 -1 850 479)"/><path d="m0 0c-4.763-5.202-11.189-8.85-16-14-1.655-1.075-3.286-2.024-5-3-5.313 2.847-1.136 3.379 1 7 15.052 12.443 26.517 25.851 34.506 43.994.39-12.713-6.027-24.734-14.506-33.994" fill="#464646" transform="matrix(1 0 0 -1 920 584)"/><path d="m0 0c-2.136-3.621-6.313-4.153-1-7-6.201-3.529-35.689-18.482-15-4 1.381.967 2.652 2.032 4 3 3.422 2.457 8.607 5.195 12 8" fill="#565656" transform="matrix(1 0 0 -1 900 594)"/><path d="m0 0c4.811 5.15 11.237 8.798 16 14-2.84-7.05-10.185-10.224-16-14" fill="#565656" transform="matrix(1 0 0 -1 904 598)"/><path d="m0 0c-9.238-.468-4.189-8.31-6.149-12.86-.268-.622-3.173-.147-4.2-2.369-2.362-5.112 2.935-18.722 1.103-28.025-1.738-8.82-7.192-7.625-9.092-10.988-2.51-4.445-1.789-15.355-3.581-20.339-2.975-8.276-19.971-22.856-23.963-30.037-2.104-3.785-1.283-8.486-3.066-11.935-3.729-7.213-14.104-9.799-18.574-13.425-2.666-2.164-5.718-8.911-7.789-10.708-3-2.604-17.086-10.916-17.776-11.742-2.428-2.909 2.984-4.975 2.087-5.56-1.892-1.232-14.391 2.565-19 1.988 4.592 4.609 12.591 7.384 17.036 11.55 1.594 1.496-.619 3.086.924 4.899 3.228 3.791 7.257 1.261 9.392 2.609 10.052 6.346 29.522 27.905 36.649 37.441 4.476 5.989 6.694 13.475 12.933 18.153-3.856 15.144 3.487 12.258 8.113 18.078 3.66 4.605 3.97 15.03 5.67 21.053 1.085 3.842 5.497 7.706 5.874 12.199.234 2.783-1.863 4.637-1.696 7.514.437 7.546.329 16.399 2.105 23.504 3.669-.481 9.552-.172 13-1" fill="#969696" transform="matrix(1 0 0 -1 904 482)"/><path d="m0 0c2.995-.014 6.005.02 9 0 1-.007 2 .008 3 0 .648-4.773-6.027-4.64-5.975-5.5.151-2.521 7.334 1.061 7.98-3.957.169-1.313-1.887-3.171-1.859-4.982.188-12.299 1.14-24.57-2.969-36.238-17.301-49.13-97.678-72.664-142.089-45.735-2.912 1.765-5.305 7.887-9.088 5.412 4.111 18.403-21.227 23.699-29 8-3.874 5.979 4.688 12.775 4.043 15.495-.941 3.968-5.076 1.733-5.037 2.999.063 2.082 9.813 1.291 2.994 10.506 3.127 2.811 7.096 5.402 10 9-2.804-7.762.809-4.617 2.381-5.237 12.255-4.832 5.206 2.092 7.625 5.231 3.427 4.446 6.548-8.949 4.994-10.994-8.018-6.293-5.217-14.392 3-18 3.523-1.547 13.457-1.036 14.568-3.989.607-1.614-2.553-4.025-2.301-6.343 1.496-13.766 4.127-7.057 7.186-7.601 3.195-.568 5.955-1.956 9.058-2.653.921-.207 3.388 2.146 4.472 1.585.434-.225 1.864-7.466 5.532-8.052 2.047-.327 7.515 3.837 12.027 3.864 7.936.047 12.373-8.06 18.799-5.643 3.448 1.297-1.885 5.231-.335 6.826 1.041 1.07 4.487-2.278 6.455-1.992 1.77.257.381 6.103 4.047 6.064 3.286-.035 2.64-8.049 11.555-5.634 7.662 2.076-2.59 10.036 2.952 12.565 2.338 1.067 2.614-9.55 5.468-8.986 2.73.539 4.803 8.22 6.229 9.087 3.441 2.09 5.721-4.301 9.746-.068 5.65 5.943 4.057 13.64 8.74 18.674.242.26 3.411-.49 6.272 3.332 1.389 1.856 8.552 20.323 8.595 21.517.045 1.244-3.196 10.427-3.098 10.99.471 2.72 3.488 2.085 4.085 4.981.152.734.14 14.261-.032 14.991-.7 2.974-16.506 4.796-1.02 10.485.667-.002 1.333.003 2 0" fill="#cbcbcb" transform="matrix(1 0 0 -1 810 480)"/><path d="m0 0c-4.342-11.399-.873-29.684-4.167-41.333-.76-2.688-9.678-11.001-10.098-11.899-1.957-4.188.963-7.086-.467-11.491-.802-2.466-32.213-36.982-34.977-38.093-1.444-.581-4.298 1.535-6.544.649-10.304-4.06-10.109-12.109-13.788-14.291-3.437-2.039-35.427-3.747-36.96-5.569-.874-1.038 4.536-5.316-6.666-5.857-6.296-.304-11.174 3.854-17.883 1.024l-47.192 11.618-6.258 15.242c.373.196.655.732 1 1 .94.212 2.274.375 3 1 4.253 1.268 4.717-4.789 5.044-4.965 2.384-1.28 5.11 2.953 5.455 2.947.634-.01 2.611-3.49 4.213-3.816 2.318-.471 8.786 4.064 8.284-.649-.111-1.035-7.721-3.605-2.584-7.632 2.706-2.121 6.378.949 9.822-.092 4.149-1.254 5.988-4.335 10.743-5.414 4.336-.983 41.609-.999 44.997.147 6.334 2.143 18.958 15.526 26.045 18.997 1.662.815 5.304-1.781 9.339 1.624 3.222 2.719 1.929 5.792 3.267 6.982 1.219 1.084 4.679-.489 6.708.955 2.668 1.901 10.718 8.577 13.204 10.88 2.139 1.979 1.93 4.946 3.41 6.506.23.242 4.666-.099 5.049.544 1.316 2.209-2.772 3.829-2.605 6.98.277 5.234 11.162 14.673 12.209 18.977 1.039 4.272-3.464 6.263.522 10.433 2.606 2.727 5.109-.212 5.837 2.18 1.262 4.148-7.572 27.802 1.041 32.416 3.658-.035 7.343.061 11 0" fill="#bfbfbf" transform="matrix(1 0 0 -1 845 480)"/><path d="m0 0c-.345-.268-.627-.804-1-1-2.393-1.255-10.202-2.282-13-2-19.327 9.283-.052 35.125 14.953 24.454 7.193-5.115 5.29-16.617-.953-21.454" fill="#f8f8f8" transform="matrix(1 0 0 -1 661 579)"/><path d="m0 0c6.819-9.215-2.931-8.424-2.994-10.506-.039-1.266 4.096.969 5.037-2.999.645-2.72-7.917-9.516-4.043-15.495-1.667-3.368-2.8-7.215-2-11-.51 10.16-8.494 8.349-10.54 18.902-.42 2.168 4.971 5.89-1.452 4.59 4.458 6.319 10.299 11.391 15.992 16.508" fill="#c4c4c4" transform="matrix(1 0 0 -1 641 534)"/><path d="m0 0c-.445-1.992-2.484-5.695-4-7-.726-.625-2.06-.788-3-1 6.243 4.837 8.146 16.339.953 21.454-15.005 10.671-34.28-15.171-14.953-24.454-4.231.427-9.043 3.472-10 8-.8 3.785.333 7.632 2 11 7.773 15.699 33.111 10.403 29-8" fill="#d4d4d4" transform="matrix(1 0 0 -1 668 571)"/><path d="m0 0c-18.093-3.008-7.618-25.707 6.243-16.235 8.528 5.828 6.604 18.371-6.243 16.235m71.075 38.932c-16.76-.953-51.334-16.829-51.817-36.241-.928-37.249 90.747-3.281 77.885 26.925-3.799 8.921-18.091 9.769-26.068 9.316m4.193 15.309c13.396.793 27.495-.24 41 0-1.718-8.751 2.059-6.043 4.55-8.943 6.478-7.543-10.024-1.959-12.349-9.719-1.84-6.143 2.581-3.635 2.864-4.907 2.325-10.438-7.041-24.438-6.768-26.943.165-1.515 4.224-3.171 3.696-4.969-.643-2.193-5.376-1.02-6.966-2.047-10.494-6.781-.087-8.625-.05-9.971.101-3.733-13.375-1.625-16.338-4.402-1.375-1.288-.655-10.069-6.248-5.205-2.104 1.83-.299 5.755-2.874 5.095-1.417-.364-1.861-4.215-3.208-5.063-2.777-1.749-7.329-2.318-10.283-3.454-1.499-.576-1.679-3.195-2.569-3.513-.676-.242-11.447 5.848-13.013 6.055-2.789.369-14.773-4.123-17.854-1.141-.352.341-3.954 8.786-3.597 9.122.232.22 8.097.24 4 2.998-1.288.868-6.602-3.365-9.016-.48-1.263 1.509 1.57 10.134-4.515 7.201-4.943-2.382 2.467-8.908 1.526-9.714-.249-.212-4.057 2.347-6.279 1.832-2.461-.57-8.615-9.204-15.709-5.832-8.218 3.608-11.018 11.707-3 18 5.257 4.126 20.824 2.718 18.02 13.484-.279 1.071-2.642.147-2.848.63-2.447 5.725 3.53 2.939 7.238 4.978 12.951 7.123.064 6.977-.417 8.437-.102.309 4.203 6.373.028 4.46-.152-.069-.487-2.789-1.509-2.97-.305-.054-2.572 2.347-3.862 1.822-3.25-1.322-11.602-8.278-13.166-11.832-.311.608-2.599 3.307-2.48 3.484 4.557 6.77 33.807 17.073 40.996 23.507 7.937 2.889 16.115 5.001 24 8 6.141.991 10.692 1.626 17 2" fill="#d9d9d9" transform="matrix(1 0 0 -1 673.7323 534.2407)"/><path d="m0 0v-2c-.667.003-1.333-.002-2 0-2.995.007-6.006.024-9 0-15.096.899-33.025 2.245-48 1 19.557 1.83 39.38 1.004 59 1" fill="#a1a1a1" transform="matrix(1 0 0 -1 810 478)"/><path d="m0 0c14.975 1.245 32.904-.101 48-1-2.994-.024-6.007.053-9 0-13.504-.24-27.603.794-41 0 .369.909 1.18.932 2 1" fill="#cbcbcb" transform="matrix(1 0 0 -1 751 479)"/><path d="m0 0c-8.613-4.614.221-28.268-1.041-32.416-.728-2.392-3.231.547-5.837-2.18-3.986-4.17.517-6.161-.522-10.433-1.047-4.304-11.932-13.743-12.209-18.977-.167-3.151 3.921-4.771 2.605-6.98-.383-.643-4.819-.302-5.049-.544-1.48-1.56-1.271-4.527-3.41-6.506-2.486-2.303-10.536-8.979-13.204-10.88-2.029-1.444-5.489.129-6.708-.955-1.338-1.19-.045-4.263-3.267-6.982-4.035-3.405-7.677-.809-9.339-1.624-7.087-3.471-19.711-16.854-26.045-18.997-3.388-1.146-40.661-1.13-44.997-.147-4.755 1.079-6.594 4.16-10.743 5.414-3.444 1.041-7.116-2.029-9.822.092-5.137 4.027 2.473 6.597 2.584 7.632.502 4.713-5.966.178-8.284.649-1.602.326-3.579 3.806-4.213 3.816-.345.006-3.071-4.227-5.455-2.947-.327.176-.791 6.233-5.044 4.965 1.516 1.305 3.555 5.008 4 7 3.783 2.475 6.176-3.647 9.088-5.412 44.411-26.929 124.788-3.395 142.089 45.735 4.109 11.668 3.157 23.939 2.969 36.238-.028 1.811 2.028 3.669 1.859 4.982-.646 5.018-7.829 1.436-7.98 3.957-.052.86 6.623.727 5.975 5.5 3.991-.031 8.009.038 12 0" fill="#c5c5c5" transform="matrix(1 0 0 -1 834 480)"/><path d="m0 0c2.994.024 6.005.007 9 0-15.486-5.689.32-7.511 1.02-10.485.172-.73.184-14.257.032-14.991-.597-2.896-3.614-2.261-4.085-4.981-.098-.563 3.143-9.746 3.098-10.99-.043-1.194-7.206-19.661-8.595-21.517-2.861-3.822-6.03-3.072-6.272-3.332-4.683-5.034-3.09-12.731-8.74-18.674-4.025-4.233-6.305 2.158-9.746.068-1.426-.867-3.499-8.548-6.229-9.087-2.854-.564-3.13 10.053-5.468 8.986-5.542-2.529 4.71-10.489-2.952-12.565-8.915-2.415-8.269 5.599-11.555 5.634-3.666.039-2.277-5.807-4.047-6.064-1.968-.286-5.414 3.062-6.455 1.992-1.55-1.595 3.783-5.529.335-6.826-6.426-2.417-10.863 5.69-18.799 5.643-4.512-.027-9.98-4.191-12.027-3.864-3.668.586-5.098 7.827-5.532 8.052-1.084.561-3.551-1.792-4.472-1.585-3.103.697-5.863 2.085-9.058 2.653-3.059.544-5.69-6.165-7.186 7.601-.252 2.318 2.908 4.729 2.301 6.343-1.111 2.953-11.045 2.442-14.568 3.989 7.094-3.372 13.249 5.262 15.709 5.832 2.222.515 6.03-2.044 6.279-1.831.941.805-6.469 7.332-1.526 9.714 6.085 2.932 3.252-5.693 4.515-7.202 2.415-2.885 7.729 1.348 9.017.481 4.096-2.758-3.769-2.779-4.001-2.998-.356-.337 3.245-8.782 3.597-9.123 3.081-2.981 15.066 1.51 17.854 1.141 1.566-.207 12.338-6.297 13.014-6.055.889.318 1.07 2.937 2.568 3.513 2.954 1.136 7.507 1.705 10.283 3.454 1.347.848 1.791 4.699 3.209 5.063 2.574.661.77-3.265 2.873-5.094 5.593-4.865 4.873 3.917 6.248 5.205 2.964 2.776 16.439.668 16.338 4.401-.037 1.346-10.444 3.19.05 9.971 1.591 1.028 6.323-.146 6.967 2.047.528 1.798-3.532 3.454-3.697 4.969-.273 2.505 9.093 16.506 6.768 26.943-.283 1.272-4.704-1.236-2.863 4.908 2.324 7.76 18.826 2.175 12.348 9.718-2.49 2.9-6.268.193-4.55 8.943 2.993.053 6.006-.024 9 0" fill="#d4d4d4" transform="matrix(1 0 0 -1 799 480)"/><path d="m0 0c7.978.453 22.27-.394 26.069-9.316 12.861-30.205-78.814-64.174-77.886-26.925.484 19.413 35.057 35.288 51.817 36.241" fill="#fafafa" transform="matrix(1 0 0 -1 744.807 495.3092)"/><path d="m0 0c12.847 2.136 14.771-10.407 6.243-16.235-13.861-9.472-24.336 13.227-6.243 16.235" fill="#f8f8f8" transform="matrix(1 0 0 -1 673.7323 534.2407)"/><path d="m0 0c0-15.511 11.088-28.085 24.766-28.085s24.766 12.574 24.766 28.085-11.088 28.085-24.766 28.085-24.766-12.574-24.766-28.085" fill="#1e1e1e" transform="matrix(1 0 0 -1 485.8085 723.7234)"/></g></svg>